<?xml version="1.0" encoding="UTF-8"?>
<svg id="Layer_2" data-name="Layer 2" xmlns="http://www.w3.org/2000/svg" xmlns:xlink="http://www.w3.org/1999/xlink" viewBox="0 0 296.21 296.76">
  <defs>
    <style>
      .cls-1 {
        fill: url(#linear-gradient);
      }
    </style>
    <linearGradient id="linear-gradient" x1="15.94" y1="101.88" x2="288.36" y2="218.21" gradientUnits="userSpaceOnUse">
      <stop offset="0" stop-color="#ffa3ff"/>
      <stop offset=".46" stop-color="#f0f0f0"/>
      <stop offset=".54" stop-color="#dbf2f2"/>
      <stop offset=".85" stop-color="#8dfbfb"/>
      <stop offset="1" stop-color="#6effff"/>
    </linearGradient>
  </defs>
  <g id="Layer_1-2" data-name="Layer 1">
    <path class="cls-1" d="m133.7,29.61l-1.94-2.1c2.29-2.9,3.66-6.55,3.66-10.52C135.42,7.29,127.3-.5,117.5.03c-8.57.46-15.58,7.49-16.02,16.06-.5,9.79,7.28,17.88,16.96,17.88,3.15,0,6.11-.87,8.65-2.37l3.05,3.31c1.09,1.18,1.69,2.73,1.69,4.34v42.08h6.21v-44.5c0-1.61-.6-3.16-1.69-4.34l-2.65-2.88Zm-7.91-8.59c-1.03,1.86-2.75,3.3-4.81,3.95-.8.26-1.65.39-2.54.39-4.63,0-8.39-3.75-8.39-8.38s3.76-8.38,8.39-8.38,8.38,3.75,8.38,8.38c0,1.47-.38,2.84-1.03,4.04Zm-16.49,19.25c-5.23,0-9.47,4.24-9.47,9.47,0,4.25,2.79,7.84,6.64,9.04v22.53h5.77v-22.57c3.8-1.24,6.53-4.8,6.53-9.01,0-5.23-4.24-9.47-9.47-9.47Zm0,13.07c-1.99,0-3.59-1.61-3.59-3.6s1.6-3.59,3.59-3.59,3.59,1.6,3.59,3.59-1.6,3.6-3.59,3.6Zm51.16-36.15c-5.22,0-9.46,4.24-9.46,9.47,0,4.16,2.69,7.7,6.42,8.96v45.69h6.21v-45.72c3.68-1.3,6.31-4.81,6.31-8.93,0-5.23-4.24-9.47-9.47-9.47Zm0,12.84c-1.86,0-3.37-1.51-3.37-3.37s1.51-3.37,3.37-3.37,3.38,1.51,3.38,3.37-1.51,3.37-3.38,3.37Zm55.42,1.65c-6.17.83-11,6.04-11.41,12.26-.11,1.72.1,3.38.6,4.92l-15.87,9.16-2.67,1.54c-1.98,1.14-3.21,3.26-3.21,5.55v16.2h5.88v-12.8c0-2.29,1.22-4.4,3.2-5.55l15.63-9.03c2.76,2.94,6.85,4.62,11.31,4.09,5.99-.71,10.84-5.55,11.56-11.54,1.05-8.69-6.32-15.97-15.03-14.8Zm1.84,19.69c-1.28,0-2.48-.37-3.48-1.01h0c-1.7-1.08-2.87-2.92-3.02-5.05,0-.16-.02-.32-.02-.48,0-3.61,2.92-6.53,6.53-6.53s6.53,2.92,6.53,6.53-2.92,6.53-6.53,6.53ZM60.21,160.36c-1.3-3.62-4.76-6.21-8.82-6.21s-7.53,2.59-8.82,6.21c0,.03-.02.06-.03.08-.33.96-.52,1.99-.52,3.07s.18,2.1.52,3.06c.02.05.03.1.05.15,1.31,3.59,4.76,6.14,8.8,6.14s7.48-2.55,8.8-6.14h17.71v-6.37h-17.69Zm-7.49,6.37c-.41.18-.86.27-1.33.27s-.93-.09-1.34-.27c-1.26-.52-2.14-1.76-2.14-3.21s.81-2.6,1.99-3.15c.45-.22.95-.33,1.49-.33s1.03.12,1.48.33c1.19.55,2,1.76,2,3.15s-.89,2.7-2.15,3.21Zm85.21,96.8v-42.71h-5.98v42.66c-7.91,1.34-13.93,8.24-13.93,16.52,0,9.26,7.5,16.77,16.76,16.77s16.77-7.5,16.77-16.77c0-8.18-5.86-15-13.61-16.47Zm-3.15,25.4c-4.92,0-8.92-4-8.92-8.93s4-8.92,8.92-8.92,8.93,3.99,8.93,8.92-4,8.93-8.93,8.93Zm28.53-40.55v-27.56h-5.99v27.63c-3.92,1.3-6.74,4.99-6.74,9.35,0,5.44,4.41,9.86,9.85,9.86s9.85-4.42,9.85-9.86c0-4.44-2.93-8.19-6.96-9.41Zm-2.89,12.79c-1.86,0-3.37-1.51-3.37-3.38s1.51-3.37,3.37-3.37,3.37,1.51,3.37,3.37-1.51,3.38-3.37,3.38Zm53.93,6.37c-3.09-.3-5.98.53-8.31,2.12l-14.73-12.21c-1.47-1.22-2.32-3.03-2.32-4.93v-31.7h-5.99v34.51c0,1.91.85,3.71,2.32,4.93l3.68,3.05,13.06,10.82c-.97,1.83-1.49,3.93-1.44,6.16.16,6.34,5.22,11.67,11.54,12.14,7.9.58,14.39-6.2,13.33-14.17-.75-5.67-5.44-10.18-11.14-10.72Zm-1.24,18.07c-3.11,0-5.63-2.52-5.63-5.63,0-.43.05-.83.14-1.24.47-2.12,2.14-3.79,4.26-4.26.4-.09.81-.14,1.24-.14,3.11,0,5.63,2.52,5.63,5.63s-2.52,5.63-5.63,5.63Zm-106.63-64.79v13.74c0,2.29-1.22,4.4-3.2,5.55l-21.82,12.6c-3.23-3.99-8.24-6.48-13.81-6.28-8.69.31-15.87,7.36-16.33,16.04-.52,9.8,7.27,17.92,16.96,17.92s16.98-7.6,16.98-16.98c0-1.9-.32-3.74-.9-5.45l22.13-12.78,2.78-1.61c1.98-1.14,3.2-3.26,3.2-5.55v-17.2h-5.98Zm-38.21,51.07c-4.69,0-8.5-3.8-8.5-8.49s3.81-8.49,8.5-8.49,8.49,3.8,8.49,8.49-3.8,8.49-8.49,8.49Zm-23.34-85.65c-1.34-5.36-6.17-9.33-11.93-9.33-6.79,0-12.3,5.51-12.3,12.3s5.51,12.3,12.3,12.3c5.62,0,10.34-3.76,11.82-8.91h33.08v-6.37h-32.97Zm-11.93,8.41c-3.01,0-5.45-2.44-5.45-5.44s2.44-5.44,5.45-5.44,5.44,2.44,5.44,5.44-2.44,5.44-5.44,5.44Zm9.57-34.29s-.02.06-.03.08v-.08h.03Zm.03,6.37h-.05v-.15c.02.05.03.1.05.15Zm-9.5-31.41c-1.48-5.64-6.62-9.81-12.73-9.81-7.28,0-13.18,5.9-13.18,13.18s5.9,13.17,13.18,13.17c6.23,0,11.47-4.35,12.82-10.17h44.71v-6.37h-44.8Zm-12.73,9.79c-3.55,0-6.43-2.87-6.43-6.42s2.88-6.43,6.43-6.43,6.42,2.88,6.42,6.43-2.87,6.42-6.42,6.42Zm12.11-39.33l-5.84-12.33c4.34-3.25,7.05-8.57,6.65-14.5-.56-8.27-7.33-14.97-15.6-15.46C7.4,62.89-1.01,71.6.1,81.96c.73,6.84,5.75,12.61,12.42,14.3,2.92.74,5.77.65,8.37-.02l6.27,13.21,1.28,2.71c1.06,2.24,3.31,3.66,5.79,3.66h43.66v-6.37h-39.63c-2.48,0-4.73-1.43-5.79-3.66Zm-9.48-20.01c-1.43,1.59-3.45,2.65-5.73,2.81-.2.02-.4.03-.61.03-4.69,0-8.49-3.81-8.49-8.5s3.8-8.49,8.49-8.49,8.49,3.8,8.49,8.49c0,2.17-.82,4.15-2.15,5.66Zm273.2,7.13c-.44-8.45-7.36-15.36-15.81-15.81-9.66-.51-17.64,7.17-17.64,16.72,0,1.92.33,3.76.93,5.47-5.51,2.9-11,5.79-16.5,8.69-1.57.83-3.31,1.26-5.08,1.26h-25.12v6.38h26.98c1.83,0,3.63-.46,5.23-1.34,5.86-3.2,11.71-6.41,17.57-9.61,3.06,3.6,7.63,5.88,12.73,5.88,9.55,0,17.23-7.99,16.72-17.64Zm-16.72,9.56c-4.77,0-8.65-3.87-8.65-8.65s3.88-8.65,8.65-8.65,8.65,3.87,8.65,8.65-3.87,8.65-8.65,8.65Zm6.26,113.83c-.85-7.9-7.34-14.2-15.26-14.84-2.83-.23-5.51.24-7.91,1.25l-7.44-10.35-2.16-3c-1.49-2.08-3.88-3.3-6.43-3.3h-29.57v6.31h26.31c2.55,0,4.95,1.23,6.43,3.3l7.59,10.56c-3.45,3.41-5.43,8.3-4.91,13.63.78,7.88,7.16,14.25,15.04,15,10.62,1.01,19.45-7.9,18.3-18.55Zm-16.66,10.57c-4.82,0-8.71-3.9-8.71-8.71,0-1.96.65-3.78,1.75-5.23,1.1-1.47,2.66-2.57,4.47-3.1h0c.78-.24,1.62-.37,2.49-.37,4.81,0,8.7,3.9,8.7,8.7s-3.9,8.71-8.7,8.71Zm-14.12-72.83c-4.29,0-7.93,2.81-9.17,6.69h-28.82v5.88h28.82c1.24,3.89,4.87,6.7,9.17,6.7,5.32,0,9.64-4.31,9.64-9.64s-4.31-9.63-9.64-9.63Zm0,13.34c-2.04,0-3.7-1.66-3.7-3.71s1.65-3.7,3.7-3.7,3.71,1.65,3.71,3.7-1.66,3.71-3.71,3.71Zm15.58-41.4c-5.73,0-10.54,3.92-11.9,9.22h-41.67v6.29h41.72c1.41,5.22,6.18,9.06,11.85,9.06,6.79,0,12.29-5.5,12.29-12.29s-5.5-12.29-12.29-12.29Zm0,17.88c-3.09,0-5.59-2.5-5.59-5.59s2.5-5.59,5.59-5.59,5.59,2.5,5.59,5.59-2.5,5.59-5.59,5.59Zm-185.95-53.03v120.11c0,1.76,1.44,3.19,3.19,3.19h120.11c1.76,0,3.19-1.44,3.19-3.19v-120.11c0-1.76-1.44-3.19-3.19-3.19h-120.11c-1.76,0-3.19,1.44-3.19,3.19Zm114.96,114.96h-103.42c-1.76,0-3.19-1.44-3.19-3.19v-103.42c0-1.76,1.44-3.19,3.19-3.19h103.42c1.76,0,3.19,1.44,3.19,3.19v103.42c0,1.76-1.44,3.19-3.19,3.19Zm-51.76-11.01c-6.45,0-12.9.02-19.34,0-4.3-.02-7.24-2.37-8.03-6.38-.41-2.1.05-4.04,1.26-5.83,4.2-6.25,8.42-12.47,12.53-18.78,2.55-3.91,4.64-8.06,4.77-12.86.11-4.09.03-8.18.03-12.28,0-.54-.03-1.08,0-1.62.05-.73-.15-1.27-.72-1.82-1.17-1.15-1.44-2.62-.89-4.17.61-1.7,1.9-2.7,3.66-2.73,4.52-.08,9.04-.08,13.55,0,1.71.03,2.99,1.02,3.6,2.66.6,1.63.2,3.08-.94,4.39-.34.39-.6.98-.61,1.49-.04,4.59-.06,9.19-.01,13.78.04,4.02,1.42,7.69,3.52,11,4,6.32,8.21,12.52,12.33,18.77.45.68.89,1.36,1.35,2.02,1.87,2.66,2.03,5.48.53,8.3-1.44,2.72-3.84,4.04-6.92,4.05-6.18.01-12.36,0-18.53,0-.39,0-.77,0-1.16,0Zm-6.02-58.22c0,.52,0,.93,0,1.34,0,4.29.02,8.57-.02,12.86-.01,1.19-.15,2.39-.38,3.56-.85,4.32-2.89,8.13-5.28,11.75-4,6.06-8.08,12.06-12.12,18.08-1.14,1.7-1.21,3.49-.27,5.26.88,1.66,2.33,2.54,4.24,2.54,13.21,0,26.41,0,39.62,0,1.99,0,3.53-.84,4.43-2.62.89-1.79.8-3.56-.37-5.25-1.16-1.68-2.3-3.38-3.42-5.09-3.5-5.32-7.1-10.58-10.45-15.99-2.74-4.41-4.14-9.25-3.89-14.53.16-3.54.03-7.1.02-10.66,0-.41-.04-.81-.07-1.26h-12.03Zm5.97-2.81c2.12,0,4.24-.01,6.35,0,.91,0,1.55-.38,1.58-1.3.03-1-.66-1.38-1.61-1.37-4.16,0-8.32,0-12.48,0-.93,0-1.65.32-1.63,1.35.01,1.01.73,1.34,1.66,1.33,2.04-.01,4.08,0,6.12,0Zm3.54-13.51c.02,1.91-1.53,3.5-3.41,3.49-1.84,0-3.39-1.53-3.43-3.38-.04-1.86,1.56-3.49,3.43-3.49,1.85,0,3.38,1.52,3.4,3.38Zm-10.62-10.98c0-1.54,1.25-2.81,2.78-2.83,1.63-.02,2.97,1.32,2.93,2.93-.04,1.49-1.35,2.77-2.86,2.78-1.56,0-2.85-1.3-2.85-2.88Zm7.13,80.73c-6.45,0-12.89-.01-19.34.01-1.3,0-2.39-.33-3-1.53-.59-1.17-.4-2.27.35-3.37,2.47-3.59,4.87-7.23,7.32-10.84,1.12-1.65,2.25-1.91,3.77-.67,4.86,3.96,10.22,2.51,14.01-.47.91-.72,1.76-1.51,2.69-2.19,2.45-1.81,5.47-1.36,7.2,1.12,3.07,4.4,6.07,8.84,9.11,13.26.69,1.01.82,2.07.24,3.16-.59,1.1-1.56,1.53-2.78,1.53-6.52,0-13.04,0-19.57,0h0Zm.26-23.32c-.02,1.85-1.59,3.4-3.43,3.37-1.83-.03-3.37-1.61-3.36-3.45.01-1.92,1.58-3.44,3.5-3.4,1.86.04,3.32,1.58,3.29,3.48Zm-1.39-9.97c.01-1.38,1.07-2.38,2.46-2.35,1.29.03,2.34,1.11,2.33,2.4,0,1.24-1.14,2.37-2.38,2.38-1.35.01-2.43-1.07-2.42-2.43Zm.18-9.24c-.87.03-1.57-.64-1.53-1.43.05-.85.52-1.34,1.38-1.39.8-.05,1.53.64,1.48,1.42-.06.84-.56,1.3-1.33,1.4Z"/>
  </g>
</svg>