<?xml version="1.0" encoding="UTF-8"?>
<svg id="Layer_2" data-name="Layer 2" xmlns="http://www.w3.org/2000/svg" viewBox="0 0 41.23 41.23">
  <defs>
    <style>
      .cls-1 {
        fill: #fff;
      }
    </style>
  </defs>
  <g id="Layer_1-2" data-name="Layer 1">
    <g>
      <path class="cls-1" d="m20.71,0C9.24,0,0,9.2,0,20.6,0,32.04,9.24,41.24,20.74,41.23c11.28-.02,20.48-9.28,20.49-20.61.02-11.35-9.22-20.63-20.51-20.63Zm-.09,39.67c-10.5.02-19.04-8.5-19.07-19.04C1.54,10.13,10.09,1.56,20.6,1.57c10.54,0,19.05,8.5,19.07,19.03.02,10.51-8.5,19.05-19.04,19.07Z"/>
      <path class="cls-1" d="m20.61,28.79c-3.55,0-7.1,0-10.65,0-1.36,0-1.63-.28-1.63-1.66,0-4.39,0-8.79,0-13.18,0-1.17.32-1.5,1.5-1.5,7.18,0,14.35,0,21.53,0,1.21,0,1.53.33,1.54,1.56,0,4.42,0,8.84,0,13.26,0,1.21-.33,1.53-1.55,1.53-3.58,0-7.15,0-10.73,0Zm9.51-14.69H11.06c3.25,2.79,6.38,5.48,9.54,8.19,3.18-2.73,6.31-5.42,9.53-8.19Zm-12.99,7.33c-1.96,1.95-3.87,3.84-5.71,5.67h18.51c-1.92-1.92-3.81-3.81-5.74-5.74-.9.77-1.86,1.55-2.78,2.38-.58.52-1.05.5-1.62-.01-.9-.81-1.84-1.59-2.67-2.3Zm14.09,4.34v-10.5c-1.97,1.69-3.84,3.29-5.66,4.85,1.9,1.9,3.78,3.77,5.66,5.65Zm-21.22.01c1.9-1.89,3.75-3.74,5.66-5.63-1.84-1.58-3.7-3.18-5.66-4.86v10.49Z"/>
    </g>
  </g>
</svg>