<?xml version="1.0" encoding="UTF-8"?>
<svg id="Layer_2" data-name="Layer 2" xmlns="http://www.w3.org/2000/svg" viewBox="0 0 41.23 41.23">
  <defs>
    <style>
      .cls-1 {
        fill: #fff;
      }
    </style>
  </defs>
  <g id="Layer_1-2" data-name="Layer 1">
    <g>
      <path class="cls-1" d="m20.71,0C9.24,0,0,9.2,0,20.6,0,32.04,9.24,41.24,20.74,41.23c11.28-.02,20.48-9.28,20.49-20.61.02-11.35-9.22-20.63-20.51-20.63Zm-.09,39.67c-10.5.02-19.04-8.5-19.07-19.04C1.54,10.13,10.09,1.56,20.6,1.57c10.54,0,19.05,8.5,19.07,19.03.02,10.51-8.5,19.05-19.04,19.07Z"/>
      <path class="cls-1" d="m24.09,7.79c.85.06,1.7.14,1.7.14.59.05,1.15.11,1.66.17.01,1.32.02,2.63.03,3.95h-2.4c-1.24,0-2.24,1-2.24,2.24v3.3h4.43l-.71,4.54h-3.71v11.34h-5.07v-11.34h-4.03v-4.54h4.03v-3.95c0-3.4,2.89-6.09,6.28-5.85.01,0,.02,0,.04,0Z"/>
    </g>
  </g>
</svg>