<?xml version="1.0" encoding="UTF-8"?>
<svg id="Layer_2" data-name="Layer 2" xmlns="http://www.w3.org/2000/svg" viewBox="0 0 440.59 126.61">
  <defs>
    <style>
      .cls-1 {
        fill: #fff;
      }
    </style>
  </defs>
  <g id="Layer_1-2" data-name="Layer 1">
    <g>
      <path class="cls-1" d="m93.24,38.41c-1.2-1.53-1.98-3.35-2.25-5.28-.41-2.77-1.13-5.48-2.13-8.09-.73-1.77-1.6-3.48-2.6-5.11-.27-.43-.48-.73-.58-.89-4.23-6.48-10.91-10.3-20.92-10.3-19.14,0-27.82,17.32-27.82,38.65.11,11.23,2.88,22.27,8.09,32.22.56-.09,1.13-.13,1.7-.13,5.89,0,10.66,4.77,10.66,10.66,0,5.89-4.77,10.66-10.66,10.66-5.89,0-10.66-4.77-10.66-10.66,0-2,.56-3.97,1.63-5.67-6.14-11.42-9.41-24.16-9.52-37.12,0-12.82,2.83-23.91,8.16-32.08C42.86,5.28,52.69,0,64.76,0c3.57,0,12.33,0,20.23,5.88,2.01,1.52,3.82,3.28,5.39,5.26,5.63,6.66,7.88,13.99,9.91,20.84.48,1.63.86,3.08,1.15,4.23.4,1.5-.05,3.1-1.16,4.18-.33.32-.73.56-1.17.71-1.67.55-4-.41-5.86-2.69Z"/>
      <path class="cls-1" d="m81.95,113.7c1.92-.33,3.89-.14,5.72.55,2.63.96,5.35,1.63,8.12,2,1.9.2,3.82.25,5.73.15.51-.03.88-.07,1.06-.09,7.71-.63,14.26-4.66,19.04-13.47,9.14-16.82-1.91-32.7-20.66-42.88-9.92-5.26-20.94-8.1-32.17-8.28-.19.54-.43,1.06-.7,1.56-2.81,5.17-9.28,7.09-14.45,4.28-1.23-.67-2.32-1.57-3.19-2.67-3.72-4.56-3.04-11.28,1.53-15,4.56-3.72,11.28-3.04,15,1.53.39.48.74.99,1.04,1.53,12.95.05,25.7,3.25,37.13,9.33,11.27,6.12,19.66,13.89,24.29,22.48,5.67,10.5,5.62,21.66-.15,32.27-1.71,3.13-5.89,10.83-14.82,14.96-2.3,1.04-4.71,1.79-7.2,2.23-8.56,1.75-16.08.23-23.04-1.25-1.67-.35-3.12-.71-4.27-1.01-1.51-.37-2.7-1.52-3.12-3.01-.11-.44-.13-.89-.06-1.33.32-1.75,2.27-3.34,5.16-3.89Z"/>
      <path class="cls-1" d="m23.41,66.04c-.68,1.82-1.83,3.43-3.33,4.66-2.14,1.8-4.07,3.84-5.76,6.07-1.11,1.55-2.11,3.19-2.97,4.9-.23.47-.37.8-.45.96-3.28,7.01-3.01,14.71,2.26,23.21,10.07,16.27,29.32,14.55,47.47,3.33,9.49-6,17.42-14.18,23.13-23.84-.37-.43-.7-.9-1.01-1.38-3.1-5.01-1.55-11.58,3.46-14.68,5.01-3.1,11.58-1.55,14.68,3.46,3.1,5.01,1.55,11.58-3.46,14.68-1.7,1.05-3.67,1.61-5.67,1.6-6.45,11.23-15.53,20.71-26.47,27.64-10.93,6.75-21.84,10.18-31.59,9.95-11.93-.28-21.6-5.86-27.98-16.12-1.85-3.04-6.46-10.49-5.62-20.3.23-2.5.78-4.96,1.63-7.33,2.73-8.31,7.77-14.09,12.51-19.4,1.13-1.27,2.16-2.35,2.99-3.2,1.07-1.13,2.66-1.59,4.16-1.21.44.12.86.33,1.21.62,1.38,1.11,1.77,3.6.81,6.38Z"/>
      <path class="cls-1" d="m150.16,65.96V29.35h6.42v36.61h-6.42Z"/>
      <path class="cls-1" d="m169.19,39.17v26.79h-6.09v-33.23c0-2.37,1.26-3.82,3.27-3.82,1.06.03,2.05.51,2.72,1.33l25.83,25.62v-26.81h6.09v33.53c0,2.41-1.33,3.82-3.17,3.82-1.11-.02-2.17-.51-2.92-1.33l-25.73-25.9Z"/>
      <path class="cls-1" d="m207.22,65.96V29.35h31.06v6.4h-24.72v30.22h-6.34Zm10.99-15.16v-5.59h18.52v5.59h-18.52Z"/>
      <path class="cls-1" d="m259.38,65.96c-10.19,0-17.77-8.07-17.77-18.66s7.55-17.92,17.77-17.92h8.91c10.57,0,17.92,7.33,17.92,17.92s-7.5,18.66-17.92,18.66h-8.91Zm8.91-6.4c6.74,0,11.53-5.08,11.53-11.99s-4.78-11.83-11.53-11.83h-8.91c-6.54,0-11.37,4.88-11.37,11.83s4.78,11.99,11.37,11.99h8.91Z"/>
      <path class="cls-1" d="m308.1,65.96c-10.21,0-17.77-8.06-17.77-18.66s7.56-17.92,17.77-17.92h19.84v6.4h-19.84c-6.54,0-11.37,4.88-11.37,11.83s4.78,11.99,11.37,11.99h19.84v6.36h-19.84Z"/>
      <path class="cls-1" d="m333.15,66.1V29.35h6.4v36.75h-6.4Zm29.45,0v-15.9h-18.46v-5.69h18.42v-15.15h6.39v36.75h-6.36Z"/>
      <path class="cls-1" d="m375.65,65.96V29.35h6.39v36.61h-6.39Z"/>
      <path class="cls-1" d="m434.29,65.96l-7-25.74-10.37,23.81c-.71,1.56-1.71,2.41-3.27,2.41s-2.62-.85-3.27-2.41l-10.32-23.81-7,25.74h-6.29l9.41-34.45c.45-1.76,1.46-2.61,3.17-2.61,1.41,0,2.69.85,3.22,2.16l11.27,25.87,11.28-25.87c.46-1.3,1.69-2.16,3.06-2.16,1.57,0,2.57.85,3.07,2.61l9.33,34.43h-6.3Z"/>
      <path class="cls-1" d="m161.74,96.09c-1.67.69-3.47,1.01-5.27.95-5.62,0-9.83-3.56-9.83-10.1s4.22-10.46,10.41-10.46c1.62-.07,3.24.23,4.73.87l-.63,2.1c-1.26-.56-2.62-.84-4-.82-4.66,0-7.78,2.99-7.78,8.23,0,4.88,2.81,8,7.64,8,1.45.02,2.89-.26,4.22-.82l.51,2.05Z"/>
      <path class="cls-1" d="m177.51,89.44c0,5.33-3.68,7.62-7.12,7.62-3.88,0-6.88-2.83-6.88-7.37,0-4.79,3.14-7.59,7.1-7.59,4.12,0,6.89,2.98,6.89,7.34Zm-11.33.17c0,3.14,1.8,5.5,4.34,5.5s4.36-2.33,4.36-5.58c0-2.42-1.23-5.48-4.32-5.48s-4.4,2.85-4.4,5.56h.02Z"/>
      <path class="cls-1" d="m180.81,86.29c0-1.49-.05-2.67-.12-3.86h2.3l.15,2.35h.1c.96-1.69,2.78-2.72,4.73-2.67,1.97,0,5.04,1.18,5.04,6.1v8.54h-2.59v-8.26c0-2.31-.87-4.25-3.33-4.25-1.62.03-3.04,1.11-3.51,2.67-.12.39-.18.8-.17,1.21v8.62h-2.59v-10.43Z"/>
      <path class="cls-1" d="m207.43,96.21c-1.29.57-2.69.85-4.1.83-4.32,0-7.14-2.94-7.14-7.33s3.04-7.61,7.7-7.61c1.25-.02,2.48.24,3.62.76l-.58,2c-.94-.47-1.99-.7-3.04-.67-3.26,0-5.06,2.45-5.05,5.42,0,3.33,2.13,5.33,4.98,5.33,1.1.01,2.19-.22,3.19-.67l.43,1.93Z"/>
      <path class="cls-1" d="m222.48,92.81c0,1.51.05,2.79.12,3.92h-2.31l-.13-2.34h-.07c-.97,1.69-2.79,2.71-4.74,2.67-2.24,0-4.93-1.25-4.93-6.27v-8.36h2.59v7.9c0,2.73.85,4.58,3.2,4.58,1.52-.03,2.88-.97,3.44-2.39.15-.43.23-.88.23-1.33v-8.76h2.59v10.39Z"/>
      <path class="cls-1" d="m226.81,86.88c0-1.69-.04-3.13-.12-4.46h2.29l.09,2.81h.09c.52-1.79,2.13-3.05,4-3.13.24,0,.49.02.73.07v2.45c-.29-.05-.59-.08-.89-.07-1.83,0-3.13,1.38-3.48,3.33-.07.4-.1.81-.1,1.21v7.64h-2.61v-9.85Z"/>
      <path class="cls-1" d="m236.12,94.08c1.04.63,2.23.98,3.44,1.02,1.9,0,2.78-.94,2.78-2.13s-.75-1.91-2.67-2.62c-2.59-.94-3.8-2.35-3.8-4.06,0-2.31,1.87-4.2,4.95-4.2,1.23-.02,2.43.28,3.5.88l-.67,1.89c-.88-.55-1.9-.84-2.94-.85-1.53,0-2.37.89-2.37,2,0,1.19.85,1.71,2.72,2.44,2.47.92,3.74,2.17,3.75,4.3,0,2.53-1.97,4.31-5.33,4.31-1.4.02-2.77-.33-4-1l.62-1.99Z"/>
      <path class="cls-1" d="m257.6,78.3v4.12h3.74v2h-3.74v7.71c0,1.78.51,2.79,2,2.79.51.01,1.02-.05,1.51-.19l.12,2c-.75.26-1.53.38-2.33.36-1.07.06-2.11-.36-2.84-1.14-.71-.79-1.01-2.05-1.01-3.73v-7.82h-2.22v-2h2.22v-3.45l2.55-.64Z"/>
      <path class="cls-1" d="m264.27,86.88c0-1.69-.05-3.13-.12-4.46h2.28l.1,2.81h.09c.52-1.8,2.13-3.06,4-3.13.24,0,.48.02.72.07v2.45c-.29-.05-.58-.08-.88-.07-1.84,0-3.13,1.38-3.48,3.33-.07.4-.11.81-.11,1.21v7.64h-2.59v-9.85Z"/>
      <path class="cls-1" d="m281.73,96.73l-.23-1.81h-.07c-1.03,1.37-2.66,2.17-4.38,2.13-2.89,0-4.37-2.05-4.37-4.1,0-3.46,3.07-5.37,8.6-5.33v-.33c0-1.16-.33-3.33-3.26-3.3-1.32,0-2.61.36-3.72,1.07l-.59-1.73c1.43-.85,3.06-1.28,4.72-1.25,4.38,0,5.44,2.99,5.44,5.86v5.33c-.02,1.15.05,2.29.21,3.42l-2.35.05Zm-.41-7.33c-2.82-.06-6.04.45-6.04,3.21-.11,1.26.82,2.37,2.08,2.49.12.01.23.01.35,0,1.56.05,2.97-.92,3.48-2.4.09-.26.13-.54.13-.82v-2.49Z"/>
      <path class="cls-1" d="m288.05,86.29c0-1.49-.05-2.67-.11-3.86h2.3l.14,2.35h.07c.96-1.69,2.78-2.72,4.73-2.67,2,0,5.04,1.18,5.04,6.1v8.54h-2.59v-8.26c0-2.31-.87-4.25-3.33-4.25-1.62.04-3.04,1.11-3.5,2.67-.12.39-.18.8-.18,1.21v8.62h-2.59l.03-10.43Z"/>
      <path class="cls-1" d="m304.11,94.08c1.04.63,2.23.98,3.44,1.02,1.9,0,2.78-.94,2.78-2.13s-.75-1.91-2.67-2.62c-2.59-.94-3.8-2.35-3.8-4.06,0-2.31,1.87-4.2,4.95-4.2,1.23-.02,2.43.28,3.5.88l-.67,1.89c-.88-.55-1.9-.84-2.94-.85-1.53,0-2.37.89-2.37,2,0,1.19.85,1.71,2.72,2.44,2.47.92,3.74,2.17,3.75,4.3,0,2.53-1.97,4.31-5.33,4.31-1.4.02-2.77-.33-4-1l.62-1.99Z"/>
      <path class="cls-1" d="m328.54,75.72v17.32c0,1.27.05,2.71.11,3.69h-2.31l-.13-2.47h-.07c-.94,1.79-2.83,2.88-4.86,2.8-3.46,0-6.14-2.93-6.14-7.27,0-4.78,2.95-7.69,6.43-7.69,2.19,0,3.67,1.03,4.31,2.17h.06v-8.56h2.59Zm-2.59,12.51c0-.37-.03-.74-.11-1.11-.4-1.76-1.97-3.01-3.77-3-2.67,0-4.3,2.37-4.3,5.51,0,2.91,1.45,5.33,4.25,5.33,1.85-.02,3.43-1.32,3.8-3.12.09-.36.13-.74.13-1.11v-2.5Z"/>
      <path class="cls-1" d="m335.81,78.38c.03.86-.65,1.59-1.52,1.61-.05,0-.09,0-.14,0-.85.02-1.56-.66-1.57-1.52,0-.03,0-.06,0-.09-.02-.87.67-1.6,1.54-1.62.03,0,.05,0,.08,0,.86-.03,1.58.65,1.61,1.51,0,.04,0,.07,0,.11Zm-2.91,18.35v-14.31h2.59v14.31h-2.59Z"/>
      <path class="cls-1" d="m339.43,94.08c1.04.63,2.23.98,3.45,1.02,1.9,0,2.78-.94,2.78-2.13s-.75-1.91-2.67-2.62c-2.59-.94-3.8-2.35-3.8-4.06,0-2.31,1.87-4.2,4.94-4.2,1.23-.02,2.44.28,3.5.88l-.67,1.89c-.88-.55-1.89-.84-2.93-.85-1.54,0-2.37.89-2.37,2,0,1.19.84,1.71,2.72,2.44,2.47.92,3.74,2.17,3.75,4.3,0,2.53-2,4.31-5.33,4.31-1.4.02-2.77-.33-4-1l.61-1.99Z"/>
      <path class="cls-1" d="m361.72,96.21c-1.29.57-2.69.85-4.1.83-4.31,0-7.14-2.94-7.14-7.33s3-7.63,7.68-7.63c1.25-.02,2.48.24,3.62.76l-.58,2c-.94-.47-1.99-.7-3.04-.67-3.26,0-5.06,2.45-5.05,5.42,0,3.33,2.13,5.33,4.98,5.33,1.1.01,2.18-.21,3.18-.67l.44,1.95Z"/>
      <path class="cls-1" d="m367.68,78.38c.02.87-.66,1.59-1.53,1.61-.04,0-.09,0-.13,0-.85.02-1.55-.66-1.57-1.51,0-.03,0-.07,0-.1,0-.89.72-1.61,1.61-1.61s1.61.72,1.61,1.61h0Zm-2.91,18.35v-14.31h2.59v14.31h-2.59Z"/>
      <path class="cls-1" d="m371.69,87.08c0-1.82-.05-3.33-.12-4.66h2.33l.14,2.44h.06c1.05-1.79,3-2.86,5.08-2.77,3.46,0,6.08,2.92,6.08,7.26,0,5.16-3.15,7.7-6.5,7.7-1.77.08-3.44-.77-4.41-2.25h-.06v7.82h-2.59v-15.53Zm2.59,3.82c0,.36.03.71.11,1.06.44,1.79,2.05,3.05,3.89,3.05,2.76,0,4.35-2.27,4.35-5.54,0-2.85-1.5-5.33-4.25-5.33-1.89.04-3.51,1.37-3.94,3.21-.1.35-.15.7-.17,1.06v2.49Z"/>
      <path class="cls-1" d="m388.53,75.72h2.59v21h-2.59v-21Z"/>
      <path class="cls-1" d="m398.44,78.38c0,.89-.72,1.61-1.61,1.61s-1.61-.72-1.61-1.61c-.02-.88.68-1.6,1.55-1.62.02,0,.04,0,.07,0,.86-.03,1.58.64,1.61,1.5,0,.04,0,.08,0,.12Zm-2.91,18.35v-14.31h2.59v14.31h-2.59Z"/>
      <path class="cls-1" d="m402.44,86.29c0-1.49-.05-2.67-.12-3.86h2.3l.15,2.35h.07c.96-1.69,2.78-2.72,4.73-2.67,1.97,0,5.04,1.18,5.04,6.1v8.54h-2.59v-8.26c0-2.31-.87-4.25-3.33-4.25-1.62.03-3.04,1.11-3.51,2.67-.12.39-.18.8-.18,1.21v8.62h-2.56v-10.43Z"/>
      <path class="cls-1" d="m426.79,96.73l-.23-1.81h-.08c-1.03,1.37-2.66,2.17-4.38,2.13-2.89,0-4.37-2.05-4.37-4.1,0-3.46,3.07-5.37,8.6-5.33v-.33c0-1.16-.33-3.33-3.25-3.3-1.32,0-2.61.36-3.73,1.07l-.59-1.73c1.43-.85,3.06-1.28,4.72-1.25,4.38,0,5.44,2.99,5.44,5.86v5.33c-.02,1.15.05,2.29.21,3.42l-2.35.05Zm-.41-7.33c-2.81-.06-6.04.45-6.04,3.21-.11,1.26.82,2.37,2.08,2.49.12.01.23.01.35,0,1.56.04,2.97-.92,3.49-2.4.08-.27.12-.54.12-.82v-2.49Z"/>
      <path class="cls-1" d="m433.09,86.88c0-1.69-.05-3.13-.12-4.46h2.28l.1,2.81h.09c.52-1.8,2.13-3.06,4-3.13.24,0,.49.02.73.07v2.45c-.29-.05-.59-.08-.89-.07-1.83,0-3.13,1.38-3.48,3.33-.07.4-.11.81-.11,1.21v7.64h-2.6v-9.85Z"/>
    </g>
  </g>
</svg>