<?xml version="1.0" encoding="UTF-8"?>
<svg id="Layer_2" data-name="Layer 2" xmlns="http://www.w3.org/2000/svg" viewBox="0 0 552.33 98.39">
  <defs>
    <style>
      .cls-1 {
        fill: #191f6b;
      }

      .cls-2 {
        fill: #e2d133;
      }
    </style>
  </defs>
  <g id="Layer_1-2" data-name="Layer 1">
    <g>
      <path class="cls-1" d="m101.33,37.89c0,.38,0,.75.03,1.08.01.28.05.55.12.82.05.19.15.37.27.53.13.16.3.29.48.38.24.12.49.21.75.27v1.1h-8.06v-1.1c.31-.08.61-.2.9-.36.22-.12.39-.31.49-.53.12-.28.19-.57.21-.87.03-.35.05-.79.05-1.32v-14.36c0-.53,0-.97-.04-1.31-.02-.29-.08-.58-.2-.85-.11-.23-.28-.42-.49-.54-.29-.16-.59-.29-.91-.38v-1.09h8.06v1.1c-.33.08-.64.2-.93.38-.19.13-.35.3-.45.5-.11.25-.19.51-.21.78-.05.47-.07.94-.06,1.42v14.36Z"/>
      <path class="cls-1" d="m123.64,42.07h-7.44v-1.1c.38-.07.72-.26.98-.54.2-.29.33-.62.38-.96.09-.73.12-1.46.1-2.19v-4.44c0-.79,0-1.43-.05-1.94-.02-.42-.07-.83-.15-1.24-.05-.28-.15-.55-.27-.81-.1-.19-.23-.37-.38-.53-.14-.14-.31-.24-.49-.31-.23-.07-.47-.11-.7-.1-.43,0-.85.14-1.21.38-.45.27-.82.64-1.1,1.08-.28.45-.43.97-.41,1.51v6.4c-.02.73.01,1.47.09,2.19.04.35.17.69.38.98.27.28.62.47,1.01.54v1.1h-7.42v-1.1c.39-.09.74-.28,1.02-.57.21-.28.34-.6.38-.95.09-.72.12-1.45.1-2.18v-6.86c0-.82,0-1.43-.04-1.82-.01-.32-.08-.64-.18-.95-.09-.23-.25-.43-.45-.58-.32-.19-.67-.32-1.04-.38v-1.13l4.21-.13h1.94l-.23,2.39.18.05c.52-.52,1.08-1,1.67-1.44.47-.34.97-.62,1.51-.83.53-.2,1.1-.31,1.66-.3.72-.03,1.43.1,2.09.38.54.25,1,.64,1.34,1.13.37.55.63,1.18.75,1.83.16.83.23,1.67.22,2.51v6.11c0,.49,0,.94.02,1.37,0,.34.05.68.12,1.02.05.22.13.43.25.62.12.17.27.31.45.41.22.12.46.22.71.29v1.08Z"/>
      <path class="cls-1" d="m129.12,37.57c.16.85.57,1.63,1.17,2.26.58.52,1.35.79,2.13.75.63.05,1.26-.16,1.74-.56.42-.44.63-1.04.59-1.65.01-.41-.08-.81-.27-1.17-.23-.37-.53-.68-.89-.92-.68-.44-1.39-.83-2.13-1.16-.55-.26-1.08-.55-1.59-.87-.48-.31-.91-.67-1.3-1.09-.37-.4-.66-.86-.87-1.36-.22-.53-.33-1.09-.32-1.66-.02-.93.26-1.84.8-2.59.58-.77,1.37-1.35,2.28-1.68,1.08-.4,2.23-.6,3.39-.58.75,0,1.48.03,2.19.1s1.64.21,2.78.43v3.88h-2.03c-.17-.59-.43-1.14-.78-1.65-.23-.34-.55-.62-.93-.81-.38-.16-.8-.24-1.21-.23-.58-.03-1.15.15-1.62.5-.41.35-.63.86-.6,1.4-.01.37.06.74.22,1.08.18.35.44.64.75.87.67.44,1.39.82,2.13,1.13.83.36,1.62.81,2.35,1.36.58.44,1.05,1.01,1.38,1.66.33.67.49,1.41.47,2.16.02.8-.14,1.59-.46,2.32-.29.63-.74,1.18-1.29,1.61-.59.44-1.27.76-1.99.94-.83.21-1.69.32-2.55.31-1.91-.03-3.8-.29-5.65-.78v-3.99h2.09Z"/>
      <path class="cls-1" d="m148.49,45.04c-.02.59.02,1.18.12,1.77.06.31.21.59.44.81.33.26.72.43,1.13.5v1.1h-7.66v-1.1c.37-.09.71-.27,1.01-.52.21-.22.35-.49.41-.79.1-.59.14-1.18.12-1.77v-14.55c0-.79,0-1.35-.02-1.68,0-.29-.05-.57-.11-.85-.04-.2-.12-.4-.24-.58-.12-.16-.28-.29-.45-.38-.28-.14-.58-.24-.88-.3v-1.13l4.25-.13h1.88l-.23,2.41.18.05c.71-.79,1.54-1.46,2.46-1.99.72-.4,1.53-.6,2.36-.61,1.82,0,3.19.7,4.1,2.09.91,1.39,1.37,3.47,1.37,6.25.05,1.64-.23,3.28-.81,4.82-.47,1.2-1.31,2.22-2.4,2.91-1.19.68-2.56,1.02-3.93.98-1.05,0-2.09-.14-3.1-.43v3.12Zm0-8.43c0,1.36.22,2.37.66,3.01.45.66,1.22,1.03,2.02.97.94,0,1.66-.53,2.15-1.6.49-1.07.75-2.6.75-4.59,0-2.21-.22-3.84-.67-4.89-.44-1.07-1.13-1.6-2.08-1.6-.47,0-.94.13-1.34.38-.45.26-.81.64-1.07,1.09-.28.48-.42,1.03-.41,1.59v5.64Z"/>
      <path class="cls-1" d="m176.61,39.04c-.86,1.05-1.91,1.91-3.1,2.55-1.1.52-2.31.78-3.53.75-2.38,0-4.18-.71-5.38-2.12-1.2-1.42-1.8-3.51-1.8-6.29-.04-1.6.28-3.19.93-4.65.56-1.23,1.47-2.27,2.64-2.96,1.2-.69,2.57-1.04,3.96-1.01.83-.01,1.66.1,2.45.35.66.21,1.27.54,1.8.97.5.42.93.93,1.25,1.51.41.75.7,1.56.87,2.39.22,1.1.33,2.22.32,3.35h-9.74c0,2.01.33,3.49.99,4.43.66.95,1.65,1.42,2.97,1.42.73.01,1.45-.15,2.1-.47.77-.43,1.45-1,2.03-1.67l1.25,1.46Zm-4.14-6.97c-.04-1.69-.25-2.96-.61-3.79-.26-.76-.98-1.26-1.78-1.25-.79,0-1.42.43-1.88,1.3s-.75,2.11-.84,3.74h5.11Z"/>
      <path class="cls-1" d="m192.29,37.81l1.18,1.55c-.83.93-1.81,1.7-2.91,2.29-.95.46-2,.7-3.06.69-2.22,0-3.92-.71-5.08-2.12-1.17-1.42-1.75-3.47-1.75-6.16-.04-1.62.29-3.24.96-4.72.59-1.26,1.55-2.32,2.76-3.01,1.26-.7,2.68-1.05,4.12-1.02.83,0,1.66.06,2.48.19.77.11,1.52.29,2.26.52v4.01h-3.04c-.08-.8-.31-1.57-.69-2.28-.28-.46-.78-.73-1.32-.72-.38,0-.76.11-1.08.31-.4.26-.71.63-.91,1.07-.3.64-.51,1.33-.62,2.03-.17,1.06-.25,2.14-.23,3.22-.02,1.11.09,2.21.34,3.29.16.78.54,1.49,1.09,2.06.54.5,1.25.76,1.98.72.59,0,1.16-.14,1.68-.41.69-.41,1.31-.91,1.86-1.5Z"/>
      <path class="cls-1" d="m207.02,40.07c-.72.71-1.55,1.3-2.46,1.75-.73.34-1.53.51-2.33.51-1.53,0-2.66-.45-3.41-1.34-.75-.89-1.13-2.24-1.13-4.05v-9.3h-1.93v-1.13c.5-.07.97-.25,1.39-.53.3-.23.54-.54.69-.89.18-.47.31-.96.38-1.46.1-.6.17-1.35.22-2.26h3.67v4.14h4.37v2.08h-4.36v7.55c-.02.93.03,1.86.16,2.78.06.48.25.94.55,1.32.24.28.59.43.95.43.25,0,.51-.02.75-.08.25-.07.49-.17.72-.3.29-.17.55-.38.79-.61l.98,1.4Z"/>
      <path class="cls-1" d="m216.21,42.33c-1.35.03-2.68-.26-3.89-.86-1.13-.61-2.03-1.57-2.56-2.74-.61-1.25-.92-2.86-.92-4.8-.03-1.31.17-2.61.57-3.86.33-1,.87-1.92,1.58-2.7.67-.71,1.5-1.25,2.42-1.57.98-.35,2.01-.52,3.05-.51,2.48,0,4.35.71,5.61,2.12,1.26,1.41,1.89,3.49,1.88,6.22.05,1.67-.27,3.32-.94,4.85-.55,1.23-1.49,2.25-2.67,2.9-1.28.66-2.7.99-4.14.95Zm-2.7-8.77c0,2.35.24,4.11.73,5.27.48,1.16,1.22,1.74,2.2,1.75.49.02.97-.14,1.36-.45.4-.35.7-.8.88-1.3.24-.66.4-1.34.47-2.04.1-.89.14-1.78.14-2.67,0-2.39-.24-4.17-.73-5.35s-1.21-1.77-2.16-1.77c-.64-.02-1.25.24-1.67.72-.49.62-.8,1.36-.92,2.15-.22,1.22-.31,2.45-.29,3.69Z"/>
      <path class="cls-1" d="m233.59,27.94l.2.05c.62-.84,1.4-1.54,2.3-2.06.79-.42,1.67-.64,2.56-.63.66,0,1.32.08,1.97.21v4.61h-2.78c-.11-.54-.34-1.06-.66-1.51-.27-.34-.69-.53-1.13-.52-.27,0-.53.08-.75.22-.29.16-.54.38-.75.63-.21.24-.38.53-.49.83-.1.28-.16.57-.19.86-.03.29-.05.72-.05,1.3v5.33c-.02.74.02,1.48.11,2.21.05.36.2.71.43.99.3.28.68.46,1.09.51v1.1h-7.57v-1.1c.76-.11,1.35-.74,1.4-1.51.08-.72.12-1.45.1-2.18v-6.87c0-.82,0-1.43-.04-1.82-.01-.32-.07-.64-.18-.95-.09-.23-.24-.43-.44-.58-.32-.19-.67-.32-1.04-.38v-1.13l4.21-.13h1.91l-.2,2.49Z"/>
      <path class="cls-1" d="m252.1,39.89l-.23-.08c-.7.78-1.53,1.43-2.45,1.93-.78.4-1.65.6-2.52.6-.8.02-1.59-.16-2.3-.52-.63-.33-1.14-.83-1.47-1.46-.34-.66-.51-1.4-.5-2.15,0-1.63.74-2.91,2.22-3.85,1.48-.94,3.72-1.53,6.73-1.77v-1.58c.03-.81-.08-1.62-.32-2.39-.15-.47-.44-.88-.83-1.18-.36-.23-.77-.34-1.2-.33-.42,0-.84.08-1.22.27-.4.24-.72.59-.93,1.01-.32.64-.53,1.34-.61,2.06h-2.9v-3.01c.94-.46,1.72-.81,2.35-1.05.6-.24,1.22-.44,1.85-.61.54-.15,1.08-.26,1.63-.34.48-.06.96-.1,1.44-.1,1.02-.04,2.03.14,2.97.53.75.36,1.34.97,1.67,1.73.4,1.05.58,2.16.53,3.28v6.49c0,.73.02,1.3.05,1.69.01.3.06.6.14.89.06.17.14.33.26.47.11.12.23.21.38.28.27.11.55.2.84.27v1.1h-5.7l.14-2.18Zm-.51-5.67c-1.58.05-2.76.37-3.52.97-.78.64-1.2,1.63-1.13,2.64-.04.57.15,1.14.52,1.57.38.37.91.57,1.44.54.47,0,.94-.14,1.33-.41.42-.27.76-.65,1-1.09.25-.44.38-.94.38-1.45l-.02-2.77Z"/>
      <path class="cls-1" d="m271.54,40.07c-.72.71-1.55,1.3-2.46,1.75-.73.34-1.53.51-2.33.51-1.52,0-2.66-.45-3.41-1.34-.75-.89-1.13-2.24-1.13-4.05v-9.3h-1.92v-1.13c.5-.07.97-.25,1.38-.53.3-.23.54-.54.69-.89.18-.47.31-.96.38-1.46.1-.6.17-1.35.22-2.26h3.67v4.14h4.37v2.08h-4.36v7.55c-.02.93.03,1.86.16,2.78.06.48.25.94.55,1.32.24.27.59.43.95.43.25,0,.51-.02.75-.08.25-.07.49-.17.72-.3.29-.17.55-.38.79-.61l.98,1.4Z"/>
      <path class="cls-1" d="m273.38,25.56h5.96v9.24c0,1.06.03,1.9.09,2.5.03.49.15.97.35,1.42.14.3.36.56.64.75.29.17.62.26.96.24.43-.01.84-.14,1.2-.38.44-.27.8-.64,1.07-1.08.28-.44.44-.95.44-1.47v-6.4c0-.81-.02-1.41-.05-1.81-.02-.31-.07-.62-.18-.92-.08-.22-.21-.42-.38-.57-.27-.2-.58-.34-.91-.43v-1.1h5.99v11.65c0,.84,0,1.46.04,1.84,0,.32.07.63.17.93.09.23.25.43.45.57.32.19.66.32,1.03.38v1.13l-4.18.15h-1.86l.14-2.39-.18-.05c-.74.79-1.6,1.47-2.55,2-.7.36-1.47.56-2.26.56-.91.05-1.82-.18-2.6-.66-.67-.47-1.17-1.15-1.4-1.93-.32-1.07-.46-2.18-.43-3.29v-6.09c0-.62,0-1.1-.02-1.43,0-.26-.03-.52-.07-.78-.03-.17-.07-.34-.13-.5-.07-.15-.16-.28-.26-.41-.11-.13-.25-.25-.4-.33-.22-.12-.45-.21-.69-.27l.02-1.1Z"/>
      <path class="cls-1" d="m299.43,37.27c-.02.73.01,1.46.09,2.18.04.35.17.68.38.96.29.3.66.5,1.07.58v1.1h-7.53v-1.1c.25-.06.5-.15.72-.27.16-.1.3-.22.41-.38.11-.16.19-.34.25-.53.08-.29.13-.6.14-.9,0-.38.03-.93.03-1.64v-12.99c0-.95,0-1.66-.02-2.1,0-.38-.04-.76-.09-1.13-.03-.26-.11-.51-.23-.73-.11-.18-.26-.34-.45-.44-.29-.14-.6-.24-.91-.29v-1.1l4.25-.23h1.92l-.02,19.03Z"/>
      <path class="cls-1" d="m314.76,36.46c.25,1.32.68,2.3,1.28,2.95.6.65,1.48.97,2.64.98.56,0,1.12-.1,1.63-.33.49-.23.89-.6,1.16-1.07.31-.57.46-1.21.43-1.86.01-.61-.11-1.23-.35-1.79-.27-.55-.66-1.04-1.13-1.44-.68-.55-1.41-1.04-2.18-1.45-.75-.4-1.47-.85-2.16-1.35-.61-.44-1.17-.96-1.65-1.54-.45-.55-.81-1.17-1.06-1.84-.26-.72-.39-1.49-.38-2.26-.04-1.22.29-2.43.93-3.47.66-.98,1.61-1.74,2.71-2.17,1.31-.52,2.7-.78,4.11-.75.87,0,1.74.05,2.61.16.96.13,1.9.32,2.84.56v4.85h-2.1c-.14-.73-.4-1.43-.75-2.09-.26-.47-.65-.87-1.13-1.13-1.03-.48-2.22-.49-3.27-.03-.45.21-.83.56-1.09.99-.28.48-.42,1.03-.4,1.59-.01.58.1,1.15.35,1.67.29.54.68,1.01,1.16,1.38.74.58,1.53,1.09,2.36,1.54,1.07.58,2.07,1.28,2.97,2.09.68.63,1.22,1.38,1.6,2.23.36.89.55,1.84.53,2.8.03,1.24-.27,2.47-.87,3.55-.59,1.01-1.48,1.82-2.55,2.32-1.21.56-2.53.83-3.87.81-1.09,0-2.18-.07-3.26-.19-1.07-.12-2.14-.3-3.19-.56v-5.12h2.09Zm6.6,7.3c.18.51.27,1.04.26,1.58.02,1.09-.51,2.11-1.4,2.72-.94.69-2.26,1.07-3.95,1.16l-.24-1.58c.5-.07.99-.21,1.46-.42.31-.15.56-.39.72-.7.17-.38.25-.8.23-1.22,0-.52-.04-1.04-.12-1.55h3.05Z"/>
      <path class="cls-1" d="m341.93,37.81l1.18,1.55c-.83.93-1.81,1.7-2.91,2.29-.95.46-2,.7-3.06.69-2.22,0-3.91-.71-5.08-2.12-1.17-1.42-1.75-3.47-1.75-6.16-.04-1.62.29-3.24.96-4.72.59-1.26,1.55-2.32,2.76-3.01,1.26-.7,2.67-1.05,4.11-1.02.83,0,1.66.06,2.48.19.77.11,1.52.29,2.26.52v4.01h-3.04c-.08-.8-.31-1.58-.69-2.28-.28-.46-.78-.73-1.32-.72-.38,0-.76.11-1.08.31-.39.26-.71.63-.9,1.07-.3.64-.51,1.33-.62,2.03-.17,1.06-.25,2.14-.23,3.22-.02,1.11.09,2.21.34,3.29.16.78.54,1.49,1.09,2.06.54.5,1.25.76,1.98.72.59,0,1.16-.14,1.68-.41.69-.41,1.31-.91,1.85-1.5Z"/>
      <path class="cls-1" d="m353.41,42.33c-1.35.04-2.68-.26-3.89-.86-1.13-.61-2.03-1.57-2.56-2.74-.61-1.25-.92-2.86-.92-4.8-.03-1.31.17-2.61.57-3.86.33-1,.87-1.92,1.58-2.7.67-.71,1.5-1.24,2.42-1.57.98-.35,2.01-.52,3.05-.51,2.47,0,4.34.71,5.6,2.12s1.89,3.49,1.88,6.22c.05,1.67-.27,3.32-.94,4.85-.55,1.23-1.49,2.25-2.67,2.9-1.27.66-2.69.99-4.13.95Zm-2.7-8.77c0,2.35.24,4.11.73,5.27s1.22,1.74,2.2,1.75c.49.02.97-.14,1.36-.45.4-.35.7-.8.88-1.3.24-.66.4-1.34.47-2.04.1-.89.14-1.78.14-2.67,0-2.39-.24-4.17-.73-5.35s-1.21-1.77-2.16-1.77c-.64-.02-1.25.24-1.67.72-.49.62-.8,1.36-.92,2.15-.22,1.22-.31,2.45-.29,3.69Z"/>
      <path class="cls-1" d="m370.8,37.27c-.02.73.01,1.46.09,2.18.04.8.65,1.44,1.45,1.53v1.1h-7.53v-1.1c.25-.06.5-.15.72-.27.16-.09.3-.22.4-.38.11-.16.2-.34.26-.53.08-.29.13-.6.14-.9.02-.38.03-.93.03-1.64v-12.99c0-.95,0-1.66-.02-2.1-.01-.38-.04-.75-.09-1.13-.03-.26-.11-.51-.23-.73-.11-.18-.27-.33-.45-.44-.3-.14-.61-.24-.94-.3v-1.1l4.25-.23h1.92v19.03Z"/>
      <path class="cls-1" d="m385.01,39.89l-.23-.08c-.7.78-1.53,1.43-2.45,1.93-.78.4-1.65.6-2.53.6-.8.02-1.58-.16-2.29-.52-.63-.33-1.14-.83-1.48-1.46-.34-.66-.51-1.4-.5-2.15,0-1.63.74-2.91,2.22-3.85,1.48-.94,3.72-1.53,6.73-1.77v-1.58c.03-.81-.08-1.62-.32-2.39-.15-.47-.44-.88-.83-1.18-.36-.23-.79-.35-1.22-.33-.42,0-.84.08-1.22.27-.4.24-.72.59-.93,1.01-.32.64-.53,1.34-.61,2.06h-2.88v-3.01c.94-.46,1.72-.81,2.35-1.05.61-.24,1.22-.44,1.85-.61.54-.15,1.08-.26,1.63-.34.48-.06.96-.1,1.44-.1,1.02-.04,2.03.14,2.97.53.74.36,1.34.97,1.66,1.73.41,1.05.6,2.18.55,3.31v6.46c0,.73.02,1.3.05,1.69.02.3.06.6.15.89.05.17.14.33.25.47.11.12.23.21.38.28.27.11.55.2.84.27v1.1h-5.71l.12-2.18Zm-.5-5.67c-1.59.03-2.76.36-3.51.97-.78.65-1.2,1.63-1.13,2.64-.04.57.15,1.14.52,1.57.38.37.91.57,1.44.54.48,0,.94-.14,1.34-.41.42-.27.76-.65,1-1.09.24-.44.37-.94.38-1.45l-.03-2.77Z"/>
      <path class="cls-1" d="m399.68,27.94l.2.05c.62-.84,1.4-1.54,2.3-2.06.79-.42,1.67-.64,2.56-.63.66,0,1.32.08,1.97.21v4.61h-2.78c-.12-.54-.36-1.04-.69-1.48-.27-.34-.69-.53-1.13-.52-.27,0-.53.08-.75.22-.29.16-.54.38-.75.63-.21.24-.38.53-.49.83-.1.28-.16.57-.19.86-.03.29-.05.72-.05,1.3v5.31c-.02.74.02,1.48.11,2.21.05.36.2.71.43.99.3.28.68.46,1.09.51v1.1h-7.57v-1.1c.39-.09.74-.28,1.02-.57.2-.28.33-.61.38-.95.08-.72.11-1.45.1-2.18v-6.86c0-.82,0-1.43-.04-1.82-.01-.32-.07-.64-.18-.95-.09-.23-.25-.43-.44-.58-.32-.19-.67-.32-1.04-.38v-1.13l4.21-.13h1.93l-.2,2.49Z"/>
      <path class="cls-1" d="m424.19,40.22c.02.98-.06,1.95-.25,2.91-.16.71-.45,1.38-.85,1.98-.5.73-1.14,1.36-1.88,1.85-1.07.7-2.22,1.24-3.44,1.63l-.75-2.05c.5-.22.96-.51,1.39-.85.28-.24.5-.53.66-.86.15-.36.25-.74.3-1.13.07-.67.1-1.33.09-2v-18.15c0-.52,0-.96-.04-1.31-.01-.3-.08-.59-.2-.87-.11-.22-.28-.41-.49-.54-.28-.17-.59-.29-.91-.38v-1.1h8.06v1.1c-.33.08-.65.21-.94.4-.19.13-.34.31-.45.52-.11.24-.18.49-.21.75-.05.47-.07.94-.06,1.42l-.02,16.68Z"/>
      <path class="cls-1" d="m429.35,25.56h5.97v9.24c0,1.06.03,1.9.09,2.5.03.49.15.97.35,1.42.14.3.36.56.64.75.29.17.62.25.96.24.43-.01.84-.14,1.2-.38.44-.27.8-.64,1.07-1.08.28-.44.44-.95.44-1.47v-6.4c0-.81-.02-1.41-.05-1.81-.02-.31-.08-.62-.18-.92-.08-.22-.22-.41-.41-.56-.27-.2-.58-.34-.91-.43v-1.11h5.99v11.65c0,.84,0,1.46.04,1.84.01.32.07.63.18.93.09.23.24.43.44.57.32.19.67.32,1.03.38v1.13l-4.18.15h-1.86l.14-2.39-.18-.05c-.74.79-1.6,1.47-2.55,2-.7.36-1.47.56-2.26.56-.91.05-1.82-.18-2.6-.66-.67-.47-1.17-1.15-1.4-1.93-.32-1.07-.46-2.18-.43-3.29v-6.09c0-.62,0-1.1-.02-1.43,0-.26-.03-.52-.07-.78-.03-.17-.07-.34-.13-.5-.06-.15-.13-.28-.23-.41-.11-.13-.25-.25-.4-.33-.21-.12-.44-.21-.68-.27v-1.1Z"/>
      <path class="cls-1" d="m464.48,37.21c0,.84,0,1.46.04,1.84.01.32.07.63.18.93.09.23.24.43.44.57.32.19.66.32,1.03.38v1.13l-4.18.15h-1.86l.14-2.39h-.23c-.66.76-1.45,1.39-2.32,1.88-.71.41-1.52.64-2.34.66-1.86,0-3.26-.69-4.18-2.08-.93-1.39-1.39-3.47-1.39-6.26-.05-1.64.23-3.27.84-4.8.5-1.22,1.38-2.25,2.51-2.94,1.22-.69,2.61-1.04,4.01-1,.44,0,.89.03,1.33.09.52.08,1.04.2,1.54.36v-1.51c0-1.19,0-2.03-.05-2.52-.01-.38-.08-.76-.19-1.13-.08-.24-.23-.45-.44-.61-.32-.19-.68-.32-1.06-.38v-1.13l4.25-.23h1.92v18.97Zm-4.42-6.19c0-1.35-.21-2.36-.63-3.01-.42-.65-1.16-1.03-1.93-.98-.63,0-1.23.27-1.64.75-.52.62-.87,1.35-1.03,2.14-.25,1.09-.36,2.2-.35,3.31,0,2.19.22,3.82.66,4.89s1.13,1.61,2.06,1.62c.46-.01.92-.14,1.31-.38.46-.26.84-.64,1.1-1.1.3-.52.46-1.1.44-1.7v-5.54Z"/>
      <path class="cls-1" d="m483.51,39.04c-.86,1.05-1.91,1.91-3.1,2.55-1.1.52-2.31.78-3.53.75-2.38,0-4.18-.71-5.38-2.12-1.2-1.42-1.8-3.51-1.8-6.29-.04-1.6.28-3.19.93-4.65.56-1.23,1.47-2.27,2.64-2.96,1.2-.69,2.57-1.04,3.96-1.01.83-.01,1.66.1,2.45.35.66.21,1.27.54,1.8.97.5.42.92.93,1.24,1.51.41.75.7,1.56.88,2.39.22,1.1.33,2.22.32,3.35h-9.73c0,2.01.33,3.49.99,4.43.66.95,1.65,1.42,2.97,1.42.73.01,1.45-.15,2.1-.47.77-.43,1.45-1,2.03-1.68l1.24,1.46Zm-4.14-6.97c-.04-1.69-.24-2.96-.61-3.79-.26-.76-.98-1.26-1.78-1.25-.79,0-1.42.43-1.88,1.3s-.75,2.11-.84,3.74h5.11Z"/>
      <path class="cls-1" d="m498,40.07c-.72.71-1.55,1.3-2.45,1.75-.73.34-1.53.51-2.33.51-1.53,0-2.66-.45-3.41-1.34-.75-.89-1.13-2.24-1.13-4.05v-9.3h-1.92v-1.13c.49-.06.96-.23,1.38-.5.3-.23.54-.54.69-.89.19-.47.31-.96.38-1.46.11-.75.19-1.5.23-2.26h3.67v4.14h4.37v2.08h-4.37v7.51c-.02.93.03,1.86.16,2.78.06.48.24.94.54,1.32.24.28.59.43.95.43.25,0,.51-.03.75-.08.25-.07.49-.17.72-.3.29-.17.55-.38.79-.61l1,1.4Zm-3.68,3.69c.18.51.27,1.04.26,1.58.02,1.09-.51,2.11-1.4,2.72-.93.69-2.25,1.07-3.95,1.16l-.24-1.58c.5-.07.99-.21,1.46-.42.31-.15.56-.39.72-.7.17-.38.25-.8.23-1.22,0-.52-.04-1.04-.12-1.55h3.05Z"/>
      <path class="cls-1" d="m513.64,39.04c-.85,1.05-1.91,1.91-3.1,2.55-1.1.52-2.31.78-3.53.75-2.38,0-4.18-.71-5.38-2.12-1.2-1.42-1.8-3.51-1.8-6.29-.04-1.6.28-3.19.93-4.65.56-1.23,1.47-2.27,2.64-2.96,1.2-.69,2.57-1.04,3.96-1.01.83-.01,1.66.1,2.45.35.66.21,1.27.54,1.8.97.5.42.92.93,1.24,1.51.41.75.7,1.56.88,2.39.22,1.1.33,2.22.32,3.35h-9.73c0,2.01.33,3.49.99,4.43.66.95,1.65,1.42,2.97,1.42.73.01,1.45-.15,2.1-.47.77-.43,1.45-1,2.02-1.68l1.25,1.46Zm-4.14-6.97c-.04-1.69-.24-2.96-.61-3.79-.26-.76-.98-1.26-1.78-1.25-.79,0-1.42.43-1.88,1.3s-.75,2.11-.84,3.74h5.11Z"/>
      <path class="cls-1" d="m526.7,39.89l-.23-.08c-.7.78-1.53,1.43-2.45,1.93-.78.4-1.65.6-2.53.6-.8.02-1.58-.16-2.29-.52-.63-.33-1.14-.83-1.48-1.46-.34-.66-.51-1.4-.5-2.15,0-1.63.74-2.91,2.22-3.85,1.48-.94,3.72-1.53,6.73-1.77v-1.58c.03-.81-.08-1.62-.32-2.39-.15-.47-.44-.88-.83-1.18-.36-.24-.78-.35-1.21-.34-.42,0-.84.08-1.22.27-.4.24-.73.59-.93,1.01-.32.64-.53,1.34-.61,2.06h-2.9v-3.01c.94-.46,1.72-.81,2.35-1.05.6-.24,1.22-.44,1.85-.61.54-.15,1.08-.26,1.63-.34.48-.06.96-.1,1.45-.1,1.02-.04,2.03.14,2.97.53.74.36,1.34.97,1.66,1.73.41,1.05.6,2.17.55,3.3v6.49c0,.73.02,1.3.05,1.69.01.3.06.6.15.89.05.17.14.33.25.47.11.12.23.21.38.28.27.11.55.2.84.27v1.1h-5.71l.14-2.18Zm-.5-5.67c-1.59.05-2.76.37-3.52.97-.78.64-1.2,1.63-1.13,2.64-.04.57.15,1.14.52,1.57.38.37.91.57,1.44.54.47,0,.92-.14,1.31-.4.42-.27.76-.65,1-1.09.24-.44.37-.94.38-1.45v-2.78Z"/>
      <path class="cls-1" d="m552.33,42.07h-7.44v-1.1c.38-.07.72-.26.98-.54.2-.29.33-.62.38-.96.09-.73.12-1.46.1-2.19v-4.44c0-.79,0-1.43-.05-1.94-.02-.42-.07-.83-.15-1.24-.05-.28-.15-.55-.27-.81-.1-.19-.23-.37-.38-.53-.14-.14-.31-.24-.49-.31-.23-.07-.47-.11-.7-.1-.43,0-.85.14-1.21.38-.43.27-.8.65-1.06,1.08-.28.44-.43.95-.43,1.47v6.43c-.02.73.01,1.47.09,2.19.04.35.17.69.38.98.27.28.62.47,1.01.54v1.1h-7.41v-1.1c.39-.09.74-.28,1.02-.57.21-.28.34-.6.38-.95.09-.72.12-1.45.1-2.18v-6.86c0-.82,0-1.43-.04-1.82-.01-.32-.07-.64-.18-.95-.09-.23-.25-.43-.45-.58-.32-.19-.67-.32-1.04-.38v-1.13l4.21-.13h1.94l-.23,2.39.18.05c.52-.52,1.08-1,1.67-1.44.47-.34.97-.62,1.51-.83.53-.2,1.1-.31,1.66-.3.72-.03,1.43.1,2.09.38.54.25,1,.64,1.34,1.13.37.55.63,1.18.75,1.83.16.83.23,1.67.22,2.51v6.11c0,.49,0,.94.02,1.37,0,.34.05.68.12,1.02.04.22.12.43.23.62.12.17.27.31.45.41.22.12.46.22.71.29v1.09Z"/>
      <path class="cls-1" d="m99.57,76.99c0,.54.01,1.08.07,1.62.03.28.1.55.23.81.11.2.27.38.47.5.32.17.66.3,1.01.38v.81h-6.4v-.81c.46-.09.89-.3,1.26-.59.23-.25.38-.57.42-.91.08-.6.11-1.21.1-1.81v-14.24c.01-.55-.01-1.11-.08-1.66-.03-.28-.12-.56-.25-.81-.11-.19-.27-.35-.46-.46-.32-.16-.65-.29-.99-.38v-.81h6.4v.81c-.34.08-.66.21-.96.38-.19.11-.35.27-.47.45-.14.25-.23.53-.26.82-.07.56-.09,1.12-.08,1.68v14.24Z"/>
      <path class="cls-1" d="m114.01,78.75l-.23-.06c-.7.83-1.55,1.53-2.49,2.07-.76.4-1.61.61-2.47.61-.71.02-1.41-.15-2.04-.49-.58-.31-1.05-.79-1.35-1.37-.33-.63-.49-1.33-.47-2.04,0-1.6.73-2.84,2.2-3.72s3.66-1.38,6.59-1.51v-1.1c.03-.91-.07-1.82-.3-2.7-.15-.58-.49-1.09-.96-1.45-.52-.33-1.13-.49-1.75-.46-.7-.03-1.39.21-1.91.67-.54.56-.92,1.26-1.09,2.03h-2v-2.14c.78-.46,1.6-.86,2.44-1.21.63-.25,1.28-.46,1.95-.61.65-.15,1.31-.22,1.98-.22.84-.04,1.67.14,2.42.52.62.36,1.11.92,1.37,1.59.31.72.46,1.79.46,3.23v7.46c0,.31.04.62.09.93.03.24.11.47.23.69.11.18.27.33.45.44.31.16.63.29.97.38v.81h-4.15l.08-2.34Zm-.26-5.16c-2.06.02-3.6.32-4.62.89-.97.49-1.57,1.5-1.54,2.59-.03.53.09,1.05.35,1.51.21.34.52.6.88.75.4.15.83.22,1.26.21.67,0,1.32-.18,1.88-.55.55-.35,1-.82,1.31-1.39.3-.5.46-1.08.47-1.66v-2.35Z"/>
      <path class="cls-1" d="m131.18,68.96h-1.46c-.17-.56-.44-1.09-.79-1.56-.27-.35-.63-.63-1.04-.8-.45-.17-.93-.24-1.42-.23-.7-.04-1.39.18-1.94.62-.49.42-.75,1.05-.72,1.69-.02.44.08.87.29,1.25.23.37.53.68.9.93.68.43,1.4.81,2.15,1.13.84.37,1.64.82,2.39,1.33.54.38.99.86,1.33,1.42.33.59.5,1.25.48,1.93.02.75-.12,1.5-.41,2.19-.26.57-.66,1.07-1.16,1.45-.53.39-1.13.66-1.77.81-.74.17-1.5.25-2.26.24-.83,0-1.66-.07-2.48-.2-.79-.14-1.57-.32-2.34-.54v-3.44h1.51c.17.84.6,1.61,1.22,2.2.63.49,1.42.73,2.22.68.36,0,.72-.04,1.07-.12.34-.08.65-.22.94-.41.28-.2.51-.47.66-.78.17-.39.26-.81.24-1.23.02-.48-.09-.95-.3-1.37-.24-.39-.56-.72-.94-.96-.72-.45-1.48-.84-2.26-1.18-.78-.34-1.52-.75-2.22-1.22-.53-.37-.98-.85-1.31-1.4-.33-.58-.5-1.24-.48-1.91-.02-.83.21-1.65.67-2.35.48-.69,1.16-1.22,1.95-1.52.96-.37,1.98-.55,3.01-.53.65,0,1.3.03,1.94.11.79.1,1.58.24,2.35.42v3.37Zm-3.64,13.78c.14.51.21,1.04.2,1.57.04,1.05-.42,2.05-1.23,2.71-.82.68-2.01,1.07-3.56,1.18l-.2-1.22c.52-.06,1.03-.21,1.51-.44.35-.18.64-.47.82-.82.2-.44.29-.92.27-1.41,0-.53-.04-1.05-.14-1.57h2.33Z"/>
      <path class="cls-1" d="m134.94,80.3c.29-.09.57-.2.84-.35.17-.1.32-.25.43-.41.14-.25.24-.52.27-.81.08-.56.11-1.13.1-1.7v-7.19c0-.7,0-1.27-.03-1.7,0-.35-.08-.7-.21-1.03-.11-.25-.31-.45-.56-.58-.34-.16-.69-.27-1.06-.32v-.87l3.55-.15h.93v11.79c-.02.66.02,1.32.12,1.97.06.32.22.62.47.84.34.24.72.42,1.13.5v.81h-5.97v-.81Zm4.35-21.42v3.2h-2.8v-3.2h2.8Z"/>
      <path class="cls-2" d="m56.52,0v44.2c-.9.85-1.86,1.65-2.86,2.38-.84.63-3.47,2.41-8.58,4.56-1.25.52-4.38,1.41-10.67,3.21,0,0-10.47,3.01-14.39,1.3-.52-.21-.96-.59-1.24-1.08-.07-.14-.12-.29-.16-.45-.08-.37-.08-.76,0-1.13.11-.54.3-1.05.57-1.53.45-.78,1.3-1.77,4.7-3.01,3.3-1.22,3.8-.7,6.35-1.81,1.69-.78,3.29-1.71,4.8-2.8,3.69-2.48,4.36-3.73,4.59-4.72.16-.61.13-1.25-.11-1.83-.53-1.13-1.86-1.37-1.99-1.4-1.31-.22-2.34.6-3.44,1.3-.42.27-2.16.97-5.62,2.36-4.43,1.78-5.51.9-9.48,2.26-2.67.89-5.15,2.27-7.3,4.08-3.95,3.51-5.4,7.19-5.95,9.65-.2.96-1.04,1.66-2.02,1.68h-1.17c-1.17-.02-2.11-.99-2.09-2.16,0-.02,0-.05,0-.07.38-9.65.75-18.27,1.13-27.84.09-2.66.95-5.23,2.47-7.41.96-1.35,2.07-2.59,3.3-3.7,2.26-2.05,4.91-3.61,7.79-4.59L56.52,0Z"/>
      <path class="cls-2" d="m56.52,53.6c-.15.45-.34.87-.57,1.28-1.65,3.06-5.12,4.31-7.3,5.06-8.57,2.9-13.87,3.74-13.87,3.74-3.13.57-7.69,1.38-13.36,2.53-1.28.24-2.52-.61-2.76-1.89-.03-.16-.04-.31-.04-.47-.01-1.11.74-2.09,1.83-2.36,21.25-4.92,28.81-7.51,29.66-8.8v-.02c1.05-1.61,1.58-2.43,1.88-2.66.9-.7,2.1-.47,2.28-.43,1.01.2,1.86.88,2.26,1.83.26.71.25,1.49,0,2.2Z"/>
      <path class="cls-2" d="m56.52,62.44c-.23.71-.59,1.37-1.07,1.95-2.49,3.25-6.4,4.64-7.61,5.06-6.76,2.3-10.12,3.46-13.06,4.16-5.4,1.31-15.27,3.64-16.16,1.55-.13-.45-.13-.93,0-1.38,0,0,.05-1.95,1.83-2.36,21.25-4.92,28.81-7.5,29.66-8.8h0c1.05-1.62,1.58-2.43,1.88-2.67.9-.7,2.1-.46,2.28-.43.87.18,1.95.82,2.26,1.83.1.36.1.74,0,1.1Z"/>
      <path class="cls-2" d="m68.62,24.36v60.77c0,4.89-3.86,8.89-8.63,8.89h-.97c-1.33-.03-3.36-.12-5.84-.32-5.27-.45-7.53-1.08-12.83-1.83-5.41-.75-8.11-1.15-11.73-1.13-3.2.03-7.25.08-12.18,1.66-2.62.88-5.15,1.99-7.56,3.33-1.47.78-2.76,1.57-3.9,2.28-1.14.71-2.65.37-3.36-.77,0-.01-.02-.03-.03-.04-.21-.33-.4-.67-.61-1-1.75-2.87-1.1-6.6,1.51-8.72,1-.8,2.04-1.54,3.13-2.21.65-.4,1.3-.75,1.92-1.07,3.36-1.75,6.71-2.56,11.1-3.44.56-.13,1.16-.25,1.78-.38,4.35-.88,8.86-1.46,12.93-2,5.19-.67,7.66-.58,10.78-2.41,2.39-1.38,3.83-2.21,5.35-3.93,1.6-1.8,2.36-3.51,4.17-3.76.2-.03,1.54-.21,2.33.62.37.44.57.99.57,1.56v.23c0,2.48-2.47,4.89-2.99,5.39-2.26,2.12-5.01,3.64-8.01,4.44-4.38,1.18-10.75,1.43-15.24,1.62-.29,0-1.21.05-1.24.25s.89.5,1.19.6c3.11.91,6.37,1.22,9.6.93,11.17-1.33,12.99.56,15.93-2.06.24-.22.49-.47.75-.75,1.23-1.45,2.08-3.19,2.48-5.05V14.71c-.03-.75.56-1.38,1.31-1.41.41-.01.8.15,1.06.46l5.7,6.54c.98,1.13,1.52,2.57,1.52,4.06Z"/>
    </g>
  </g>
</svg>