<?xml version="1.0" encoding="UTF-8"?>
<svg id="Layer_2" data-name="Layer 2" xmlns="http://www.w3.org/2000/svg" xmlns:xlink="http://www.w3.org/1999/xlink" viewBox="0 0 305.96 168.33">
  <defs>
    <style>
      .cls-1 {
        fill: url(#linear-gradient-2);
      }

      .cls-2 {
        fill: #fe009e;
      }

      .cls-3 {
        fill: #849687;
      }

      .cls-4 {
        fill: #5d83c6;
      }

      .cls-5 {
        fill: #faed00;
      }

      .cls-6 {
        fill: #747db4;
      }

      .cls-7 {
        fill: #bd0b61;
      }

      .cls-8 {
        fill: #c35403;
      }

      .cls-9 {
        fill: #fbc616;
      }

      .cls-10 {
        fill: #fd7400;
      }

      .cls-11 {
        fill: url(#linear-gradient-3);
      }

      .cls-12 {
        fill: url(#linear-gradient);
      }

      .cls-13 {
        fill: #84b3f9;
      }

      .cls-14 {
        fill: url(#linear-gradient-4);
      }
    </style>
    <linearGradient id="linear-gradient" x1="536.37" y1="2124.89" x2="537.2" y2="2123.69" gradientTransform="translate(-1816.94 -945.05) rotate(-50.04)" gradientUnits="userSpaceOnUse">
      <stop offset="0" stop-color="#747db4"/>
      <stop offset=".94" stop-color="#6566a1"/>
    </linearGradient>
    <linearGradient id="linear-gradient-2" x1="297.95" y1="101.57" x2="298.99" y2="100.06" gradientTransform="matrix(1, 0, 0, 1, 0, 0)" xlink:href="#linear-gradient"/>
    <linearGradient id="linear-gradient-3" x1="297.95" y1="101.57" x2="298.99" y2="100.06" gradientTransform="matrix(1, 0, 0, 1, 0, 0)" xlink:href="#linear-gradient"/>
    <linearGradient id="linear-gradient-4" x1="-2.78" y1="1134.08" x2="-1.92" y2="1133.07" gradientTransform="translate(-437.83 -903.5) rotate(-27.08)" gradientUnits="userSpaceOnUse">
      <stop offset="0" stop-color="#747db4"/>
      <stop offset="1" stop-color="#6566a1"/>
    </linearGradient>
  </defs>
  <g id="Layer_1-2" data-name="Layer 1">
    <g>
      <rect class="cls-3" x="4.32" y="33.11" width="32.05" height="1.27" transform="translate(20.85 -5.66) rotate(31.81)"/>
      <rect class="cls-3" x="38.8" y="54.07" width="32.05" height="1.27" transform="translate(37.08 -20.68) rotate(31.81)"/>
      <rect class="cls-3" x="67.93" y="63.44" width="32.05" height="1.27" transform="translate(16.79 -17.43) rotate(13.16)"/>
      <rect class="cls-3" x="25.77" y="23.63" width="32.05" height="1.27" transform="translate(75.25 -10.61) rotate(103.66)"/>
      <rect class="cls-3" x="10.35" y="55.99" width="32.05" height="1.27" transform="translate(86.25 74.41) rotate(131.52)"/>
      <circle class="cls-13" cx="36.28" cy="44.11" r="12.38"/>
      <path class="cls-4" d="m44.76,51.6c3.55-6.8,1.26-14.02-4.96-18.28,0,0,.05-.13.05-.13,5.32,1.91,9.06,7.92,7.58,13.54-.45,1.83-1.35,3.54-2.57,4.96l-.11-.09h0Z"/>
      <circle class="cls-13" cx="46.21" cy="8.36" r="8.36"/>
      <path class="cls-4" d="m51.94,13.42c2.43-4.38.77-9.67-3.35-12.35,0,0,.03-.09.03-.09,5.13,1.81,7.2,8.63,3.31,12.43h0Z"/>
      <circle class="cls-13" cx="7.45" cy="25.28" r="7.45"/>
      <path class="cls-4" d="m.88,23.5c-.19,4.48,3.18,8,7.55,8.54,0,0,0,.08,0,.08-4.81.58-9.16-4.06-7.56-8.62h0Z"/>
      <circle class="cls-13" cx="16.52" cy="69.69" r="7.45"/>
      <path class="cls-4" d="m9.95,67.91c-.19,4.48,3.18,8,7.55,8.54,0,0,0,.08,0,.08-4.81.58-9.16-4.06-7.56-8.62h0Z"/>
      <circle class="cls-13" cx="64.88" cy="60.4" r="7.45"/>
      <path class="cls-4" d="m66.34,67.04c4.06-1.9,5.62-6.52,4.08-10.64,0,0,.07-.05.07-.05,1.25,1.89,1.58,4.36.81,6.51-.73,2.06-2.91,4.03-4.96,4.18h0Z"/>
      <circle class="cls-13" cx="101.82" cy="67.35" r="7.45"/>
      <path class="cls-4" d="m107.99,70.22c.95-4.38-1.77-8.43-5.98-9.7,0,0,0-.08,0-.08,4.84.25,8.34,5.56,5.98,9.78h0Z"/>
    </g>
    <g>
      <path class="cls-6" d="m147.4,3.99c.61,1.52,1.22,3.04,1.83,4.57,4.4-1.05,8.79-2.1,13.19-3.15-.1-1.79-.2-3.59-.3-5.38-4.9,1.32-9.81,2.64-14.71,3.96Z"/>
      <path class="cls-6" d="m150.04,7.74c1.49,4.97,2.98,9.94,4.46,14.92-2.13,14.78-4.26,29.56-6.39,44.34,5.96-.09,13.56-.73,22.12-2.84,9.22-2.27,16.7-5.52,22.22-8.42-9.17-11.8-18.33-23.61-27.5-35.41l-3.45-15.22c-3.82.88-7.64,1.76-11.47,2.64Z"/>
      <path class="cls-10" d="m189.11,55.74c-5.1,2.47-11.67,5.14-19.58,7.1-7.5,1.86-14.22,2.6-19.69,2.84,1.29-9.2,2.57-18.4,3.86-27.6,1.91-.03,5.24-.33,8.93-2.03,3.96-1.83,6.45-4.39,7.71-5.89,6.25,8.53,12.51,17.05,18.77,25.57Z"/>
      <path class="cls-8" d="m170.34,30.17c-1.26,1.49-3.75,4.06-7.71,5.89-3.69,1.7-7.02,2-8.93,2.03,1.59-1.44,3.81-3.16,6.7-4.67,3.87-2.02,7.44-2.86,9.95-3.25Z"/>
      <path class="cls-12" d="m150.73,10.07c3.75-.97,7.49-1.94,11.24-2.91-.12-.52-.23-1.04-.35-1.56-3.81.91-7.61,1.81-11.42,2.72.18.58.35,1.17.53,1.75Z"/>
    </g>
    <g>
      <path class="cls-1" d="m293.17,98.71c3.03,2.02,6.06,4.04,9.09,6.06.49-.61.99-1.21,1.48-1.82-3.1-2.02-6.2-4.04-9.29-6.06-.43.61-.85,1.21-1.28,1.82Z"/>
      <g>
        <path class="cls-11" d="m293.17,98.71c3.03,2.02,6.06,4.04,9.09,6.06.49-.61.99-1.21,1.48-1.82-3.1-2.02-6.2-4.04-9.29-6.06-.43.61-.85,1.21-1.28,1.82Z"/>
        <path class="cls-6" d="m293.11,96.09c3.68,2.46,7.37,4.91,11.05,7.37.6-.74,1.2-1.47,1.8-2.21-3.77-2.46-7.53-4.91-11.3-7.37-.52.74-1.04,1.47-1.56,2.21Z"/>
        <path class="cls-6" d="m253.65,152.74c.01,3.82,2.09,7.25,5.32,8.76,3.49,1.63,6.84.33,7.45.08,11.95-18.94,23.89-37.88,35.84-56.81-3.03-2.02-6.06-4.04-9.09-6.06-13.17,18.01-26.35,36.02-39.52,54.03Z"/>
        <path class="cls-5" d="m281.93,134.16c-5.59,8.89-11.18,17.79-16.78,26.69-.29.05-4.53.7-7.37-2.45-2.08-2.33-2-5.14-1.96-5.73,7.4-10.18,14.79-20.36,22.19-30.54-.27,1-1.07,4.42.66,8.03.99,2.06,2.4,3.34,3.27,4.01Z"/>
        <path class="cls-9" d="m281.93,134.16c-.87-.67-2.28-1.95-3.27-4.01-1.73-3.61-.93-7.02-.66-8.03,1.09,1.29,2.87,3.77,3.62,7.33.4,1.84.41,3.46.31,4.71Z"/>
      </g>
    </g>
    <g>
      <rect class="cls-3" x="171.46" y="98.3" width="29.92" height="1.19" transform="translate(45.88 -58.52) rotate(20.3)"/>
      <rect class="cls-3" x="206.9" y="111.05" width="29.92" height="1.19" transform="translate(52.5 -70.03) rotate(20.3)"/>
      <rect class="cls-3" x="189.3" y="85.64" width="29.92" height="1.19" transform="translate(298.09 -114.66) rotate(92.15)"/>
      <rect class="cls-3" x="181.23" y="118.1" width="29.92" height="1.19" transform="translate(397.08 8.14) rotate(120)"/>
      <circle class="cls-13" cx="202.92" cy="105.41" r="11.56"/>
      <path class="cls-4" d="m212.07,110.68c2.01-6.81-1.5-13.13-7.94-15.8,0,0,.02-.13.02-.13,5.22.75,9.77,5.55,9.46,10.97-.07,1.76-.57,3.49-1.42,5.02,0,0-.11-.06-.11-.06h0Z"/>
      <circle class="cls-13" cx="205.34" cy="70.86" r="7.81"/>
      <path class="cls-4" d="m211.52,74.42c1.39-4.49-1.08-8.96-5.36-10.67,0,0,.01-.09.01-.09,5.04.71,8.19,6.55,5.35,10.75h0Z"/>
      <circle class="cls-13" cx="173.04" cy="93.55" r="6.95"/>
      <path class="cls-4" d="m166.7,93.15c.75,4.27,4.37,6.67,8.49,6.4,0,0,.02.08.02.08-4.27,1.44-9.15-2.02-8.52-6.48h0Z"/>
      <circle class="cls-13" cx="189.62" cy="132.48" r="6.95"/>
      <path class="cls-4" d="m183.28,132.08c.75,4.27,4.37,6.67,8.49,6.4,0,0,.02.08.02.08-4.27,1.44-9.15-2.03-8.52-6.48h0Z"/>
      <circle class="cls-13" cx="232.11" cy="114.97" r="6.95"/>
      <path class="cls-4" d="m234.69,120.78c3.44-2.64,3.89-6.96,1.75-10.49,0,0,.06-.05.06-.05,3.25,3.13,2.44,9.04-1.8,10.55h0Z"/>
    </g>
    <g>
      <path class="cls-6" d="m89.28,104.12c-.76,1.48-1.52,2.95-2.29,4.43-.67-.15-1.34-.3-2.01-.44-5.73-1.46-11.46-2.92-17.19-4.38-.91-.29-1.82-.59-2.73-.88l.93-4.86c7.77,2.04,15.53,4.09,23.29,6.13Z"/>
      <path class="cls-6" d="m84.39,109.65c-5.62-1.38-11.24-2.76-16.86-4.14-.59,3.92-1.17,7.84-1.75,11.76-1.17.23-19.67,4.07-23.28,16.78-1.42,5.02-.35,10.8.19,13.72,1.08,5.87,3.2,10.39,4.84,13.29,3.99,1.89,9.05,3.86,15.06,5.3,4.71,1.14,9.01,1.71,12.7,1.96,2.52-1.46,6.09-3.88,9.57-7.66,1.4-1.51,6.32-6.85,7.85-12.63,2.35-8.85-3.01-19.57-12.48-27.59,1.38-3.6,2.77-7.2,4.14-10.79Zm6.3,35.04c-.43,4.9-2.97,8.44-5.39,11.86-3.45,4.86-7.36,7.91-9.95,9.63-2.83-.13-6-.46-9.43-1.11-5.99-1.13-11.04-2.93-14.99-4.69-2.31-4.61-3.74-8.63-4.64-11.6-1.34-4.46-1.48-6.5-1.46-7.95.05-3.34.92-6.03,1.65-7.75,5.2-1.61,11.68-3.17,19.22-3.98,7.09-.77,13.38-.7,18.57-.32,1.54,1.6,7.13,7.78,6.43,15.9Z"/>
      <path class="cls-14" d="m84.98,108.11c-.2.52-.39,1.03-.6,1.54-5.62-1.38-11.24-2.76-16.86-4.14.09-.59.17-1.19.26-1.78,5.73,1.46,11.46,2.91,17.19,4.38Z"/>
      <path class="cls-2" d="m90.69,144.69c-.43,4.9-2.97,8.44-5.39,11.86-3.45,4.86-7.36,7.91-9.95,9.63-2.83-.13-6-.46-9.43-1.11-5.99-1.13-11.04-2.93-14.99-4.69-2.31-4.61-3.74-8.63-4.64-11.6-1.34-4.46-1.48-6.5-1.46-7.95.05-3.34.92-6.03,1.65-7.75,4.92.32,10.66.35,17.02-.25,8.12-.77,15.11-2.35,20.77-4.04,1.54,1.6,7.13,7.78,6.43,15.9Z"/>
      <path class="cls-7" d="m84.26,128.79c-5.66,1.69-12.66,3.27-20.77,4.04-6.36.6-12.1.57-17.02.25,5.2-1.61,11.68-3.17,19.22-3.98,7.09-.77,13.38-.7,18.57-.32Z"/>
    </g>
  </g>
</svg>