<?xml version="1.0" encoding="UTF-8"?>
<svg id="Layer_2" data-name="Layer 2" xmlns="http://www.w3.org/2000/svg" viewBox="0 0 518.28 92.32">
  <defs>
    <style>
      .cls-1 {
        fill: #00003e;
      }
    </style>
  </defs>
  <g id="Layer_1-2" data-name="Layer 1">
    <g>
      <path class="cls-1" d="m57.27,35.24c-4.83,2.71-9.66,5.4-14.48,8.08v2.47l-15.11-4.64V12.72c2.91-1.94,5.85-3.89,8.76-5.82,2.12,1.53,4.27,3.06,6.4,4.59v8.94h6.15v-11.46c-4.17-2.99-8.37-5.99-12.54-8.96-5.01,3.39-10.02,6.8-15.04,10.18v28.97c-2.83-.95-5.62-1.9-8.43-2.87-4.33,3.64-8.65,7.3-12.99,10.94,4.3,3.26,8.59,6.51,12.89,9.77,4.95-2.65,9.89-5.27,14.84-7.91v-2.72c4.98,1.67,9.93,3.35,14.91,5.02v28.12c-2.91,1.92-5.84,3.82-8.76,5.74-2.21-1.47-4.41-2.96-6.6-4.45v-8.99h-6.01c.04,3.9.08,7.79.12,11.66l12.51,8.87c4.95-3.51,9.89-7.02,14.84-10.53v-29.08l8.69,2.97c4.24-3.53,8.45-7.08,12.68-10.62-4.29-3.26-8.57-6.54-12.86-9.83Zm-35.92,11.24c-2.74,1.41-5.49,2.83-8.24,4.24-1.82-1.36-3.64-2.71-5.45-4.05,2.09-1.51,4.17-2.99,6.26-4.5,2.47.78,4.95,1.59,7.42,2.37v1.94Zm34.73,3.65c-2.47-.78-4.95-1.57-7.42-2.37v-1.94l8.22-4.21,5.45,4.03c-2.08,1.51-4.17,3-6.26,4.5Z"/>
      <path class="cls-1" d="m74.89,11.53h3.18v22.14h10.6v2.69h-13.78V11.53Z"/>
      <path class="cls-1" d="m95.76,13.53c.04,1.1-.77,1.99-2.06,1.99-1.07.01-1.94-.84-1.95-1.91,0-.03,0-.05,0-.08-.03-1.09.83-2,1.92-2.03.03,0,.07,0,.1,0,1.06-.04,1.95.8,1.99,1.86,0,.06,0,.11,0,.17Zm-3.61,22.84v-17.83h3.23v17.83h-3.23Z"/>
      <path class="cls-1" d="m113.48,35.7c-1.61.72-3.36,1.07-5.12,1.04-5.38,0-8.88-3.65-8.88-9.1s3.76-9.47,9.58-9.47c1.55-.02,3.08.29,4.49.9l-.74,2.5c-1.16-.6-2.45-.9-3.76-.85-4.09,0-6.3,3.02-6.3,6.74,0,4.13,2.65,6.67,6.19,6.67,1.38,0,2.74-.29,3.98-.88l.55,2.44Z"/>
      <path class="cls-1" d="m118.86,28.04c.07,4.38,2.87,6.19,6.12,6.19,1.7.05,3.38-.26,4.95-.92l.55,2.32c-1.14.52-3.09,1.11-5.93,1.11-5.49,0-8.77-3.61-8.77-8.99s3.18-9.62,8.36-9.62c5.82,0,7.37,5.12,7.37,8.4,0,.5-.04,1.01-.11,1.51h-12.53Zm9.5-2.32c.04-2.06-.85-5.27-4.49-5.27-3.28,0-4.72,3.02-4.97,5.27h9.47Z"/>
      <path class="cls-1" d="m150.44,31.5c0,1.84.04,3.47.14,4.86h-2.87l-.18-2.91h-.07c-1.22,2.09-3.48,3.36-5.9,3.32-2.8,0-6.15-1.55-6.15-7.81v-10.43h3.24v9.87c0,3.39,1.03,5.67,3.98,5.67,2.52,0,4.57-2.04,4.57-4.56,0-.01,0-.02,0-.03v-10.95h3.24v12.97Z"/>
      <path class="cls-1" d="m155.81,10.21h3.24v26.14h-3.24V10.21Z"/>
      <path class="cls-1" d="m175.63,14.26h-7.55v-2.73h18.37v2.73h-7.58v22.1h-3.24V14.26Z"/>
      <path class="cls-1" d="m188.29,28.04c.07,4.38,2.87,6.19,6.12,6.19,1.7.05,3.38-.26,4.95-.92l.55,2.32c-1.14.52-3.09,1.11-5.93,1.11-5.49,0-8.77-3.61-8.77-8.99s3.18-9.62,8.36-9.62c5.82,0,7.37,5.12,7.37,8.4,0,.5-.04,1.01-.11,1.51h-12.53Zm9.5-2.32c.04-2.06-.85-5.27-4.49-5.27-3.28,0-4.72,3.02-4.97,5.27h9.47Z"/>
      <path class="cls-1" d="m221.09,27.3c0,6.59-4.57,9.47-8.88,9.47-4.83,0-8.55-3.53-8.55-9.19,0-5.97,3.91-9.47,8.83-9.47,5.12.01,8.6,3.73,8.6,9.19Zm-14.15.18c0,3.89,2.25,6.85,5.42,6.85s5.42-2.91,5.42-6.92c0-3.02-1.51-6.85-5.34-6.85s-5.49,3.54-5.49,6.93Z"/>
      <path class="cls-1" d="m225.18,24.1c0-2.1-.04-3.89-.14-5.56h2.83l.11,3.5h.14c.81-2.39,2.77-3.89,4.95-3.89.31,0,.62.03.92.11v3.06c-.36-.08-.73-.12-1.11-.11-2.29,0-3.91,1.73-4.35,4.16-.09.5-.14,1-.15,1.51v9.51h-3.2v-12.29Z"/>
      <path class="cls-1" d="m238.67,28.04c.07,4.38,2.87,6.19,6.12,6.19,1.7.05,3.38-.26,4.95-.92l.55,2.32c-1.14.52-3.09,1.11-5.93,1.11-5.49,0-8.77-3.61-8.77-8.99s3.18-9.62,8.36-9.62c5.82,0,7.37,5.12,7.37,8.4,0,.5-.04,1.01-.11,1.51h-12.53Zm9.5-2.32c.04-2.06-.84-5.27-4.49-5.27-3.28,0-4.72,3.02-4.97,5.27h9.47Z"/>
      <path class="cls-1" d="m259.22,13.42v5.12h4.64v2.47h-4.64v9.6c0,2.21.63,3.46,2.43,3.46.63,0,1.27-.06,1.88-.22l.15,2.43c-.92.32-1.9.47-2.88.44-1.51,0-2.73-.48-3.5-1.36-.92-.96-1.25-2.54-1.25-4.64v-9.73h-2.76v-2.47h2.76v-4.27l3.17-.84Z"/>
      <path class="cls-1" d="m271.12,13.53c.04,1.1-.77,1.99-2.06,1.99-1.07.01-1.94-.84-1.95-1.9,0-.03,0-.06,0-.09-.03-1.09.83-2,1.92-2.03.04,0,.07,0,.11,0,1.06-.04,1.95.8,1.99,1.86,0,.06,0,.11,0,.17Zm-3.61,22.84v-17.83h3.24v17.83h-3.24Z"/>
      <path class="cls-1" d="m288.84,35.7c-1.61.72-3.36,1.07-5.12,1.03-5.38,0-8.87-3.65-8.87-9.1s3.76-9.47,9.58-9.47c1.55-.02,3.08.29,4.49.91l-.74,2.5c-1.16-.6-2.45-.9-3.76-.85-4.09,0-6.3,3.02-6.3,6.74,0,4.13,2.65,6.67,6.19,6.67,1.38,0,2.73-.29,3.98-.88l.55,2.44Z"/>
      <path class="cls-1" d="m315.84,10.21v21.55c0,1.59.04,3.39.14,4.59h-2.91l-.14-3.09h-.07c-1,1.99-3.18,3.5-6.08,3.5-4.31,0-7.62-3.65-7.62-9.06-.04-5.93,3.65-9.58,7.99-9.58,2.72,0,4.57,1.29,5.38,2.73h.07v-10.63h3.24Zm-3.24,15.58c0-.46-.04-.92-.15-1.36-.48-2.2-2.43-3.77-4.68-3.76-3.35,0-5.34,2.95-5.34,6.89,0,3.61,1.77,6.59,5.27,6.59,2.3-.01,4.28-1.63,4.75-3.89.11-.46.16-.94.15-1.41v-3.06Z"/>
      <path class="cls-1" d="m323.03,28.04c.07,4.38,2.87,6.19,6.12,6.19,1.7.05,3.38-.26,4.95-.92l.55,2.32c-1.14.52-3.09,1.11-5.93,1.11-5.49,0-8.77-3.61-8.77-8.99s3.18-9.62,8.36-9.62c5.82,0,7.37,5.12,7.37,8.4,0,.5-.04,1.01-.11,1.51h-12.53Zm9.51-2.32c.04-2.06-.85-5.27-4.5-5.27-3.28,0-4.71,3.02-4.97,5.27h9.47Z"/>
      <path class="cls-1" d="m350.8,11.53v24.83h-3.21V11.53h3.21Z"/>
      <path class="cls-1" d="m356.66,23.36c0-1.84-.04-3.35-.15-4.83h2.87l.19,2.95h.07c1.19-2.13,3.46-3.42,5.9-3.35,2.47,0,6.3,1.47,6.3,7.59v10.65h-3.24v-10.28c0-2.87-1.06-5.27-4.12-5.27-2.58.1-4.61,2.24-4.57,4.83v10.72h-3.24v-13Z"/>
      <path class="cls-1" d="m377.44,36.37v-15.36h-2.5v-2.47h2.5v-.85c0-2.5.55-4.79,2.06-6.22,1.18-1.1,2.74-1.69,4.35-1.66.95,0,1.88.17,2.76.52l-.44,2.5c-.65-.28-1.35-.42-2.06-.4-2.76,0-3.47,2.43-3.47,5.16v.96h4.31v2.47h-4.31v15.36h-3.2Z"/>
      <path class="cls-1" d="m403.52,27.3c0,6.59-4.57,9.47-8.88,9.47-4.83,0-8.55-3.53-8.55-9.19,0-5.97,3.89-9.47,8.83-9.47,5.13.01,8.59,3.73,8.59,9.19Zm-14.13.18c0,3.89,2.25,6.85,5.42,6.85s5.42-2.91,5.42-6.92c0-3.02-1.51-6.85-5.34-6.85s-5.5,3.54-5.5,6.93h.01Z"/>
      <path class="cls-1" d="m407.61,24.1c0-2.1-.04-3.89-.15-5.56h2.83l.11,3.5h.15c.81-2.39,2.76-3.89,4.95-3.89.31,0,.62.03.92.11v3.06c-.36-.08-.73-.12-1.11-.11-2.28,0-3.89,1.73-4.35,4.16-.09.5-.14,1-.15,1.51v9.51h-3.2v-12.29Z"/>
      <path class="cls-1" d="m419.81,23.36c0-1.84-.04-3.35-.15-4.83h2.83l.15,2.87h.11c.99-1.7,2.65-3.28,5.6-3.28,2.28-.03,4.31,1.42,5.04,3.58h.07c.49-.9,1.17-1.69,1.99-2.32,1.13-.87,2.52-1.31,3.94-1.25,2.36,0,5.86,1.55,5.86,7.74v10.5h-3.18v-10.09c0-3.43-1.25-5.49-3.89-5.49-1.84,0-3.28,1.36-3.83,2.95-.17.52-.26,1.07-.26,1.62v11.01h-3.18v-10.68c0-2.83-1.25-4.9-3.72-4.9-2.02,0-3.5,1.62-4.02,3.24-.18.51-.27,1.04-.26,1.58v10.76h-3.18l.07-13Z"/>
      <path class="cls-1" d="m460.4,36.37l-.26-2.25h-.11c-1.28,1.71-3.31,2.7-5.45,2.65-3.61,0-5.45-2.54-5.45-5.12,0-4.31,3.83-6.67,10.72-6.63v-.35c0-1.47-.41-4.13-4.05-4.13-1.64,0-3.25.46-4.64,1.32l-.73-2.15c1.77-1.06,3.8-1.61,5.86-1.58,5.45,0,6.78,3.72,6.78,7.3v6.67c-.02,1.43.08,2.86.3,4.27h-2.95Zm-.48-9.1c-3.53-.07-7.55.55-7.55,4.02,0,2.1,1.41,3.09,3.06,3.09,1.93.05,3.68-1.16,4.31-2.99.11-.33.18-.68.18-1.03v-3.09Z"/>
      <path class="cls-1" d="m472.04,13.42v5.12h4.64v2.47h-4.64v9.6c0,2.21.63,3.46,2.43,3.46.63,0,1.27-.06,1.88-.22l.14,2.43c-.92.32-1.9.47-2.87.44-1.51,0-2.73-.48-3.5-1.36-.92-.96-1.25-2.54-1.25-4.64v-9.73h-2.76v-2.47h2.76v-4.27l3.17-.84Z"/>
      <path class="cls-1" d="m483.94,13.53c.04,1.1-.77,1.99-2.06,1.99-1.07.01-1.94-.84-1.95-1.9,0-.03,0-.06,0-.09-.03-1.09.83-2,1.92-2.03.04,0,.07,0,.11,0,1.06-.04,1.95.8,1.99,1.86,0,.06,0,.11,0,.17Zm-3.61,22.84v-17.83h3.24v17.83h-3.24Z"/>
      <path class="cls-1" d="m501.66,35.7c-1.61.72-3.36,1.07-5.12,1.03-5.38,0-8.88-3.65-8.88-9.1s3.76-9.47,9.58-9.47c1.55-.02,3.08.29,4.5.91l-.74,2.5c-1.16-.6-2.45-.9-3.76-.85-4.09,0-6.3,3.02-6.3,6.74,0,4.13,2.65,6.67,6.19,6.67,1.38,0,2.73-.29,3.98-.88l.55,2.44Z"/>
      <path class="cls-1" d="m515.33,36.37l-.26-2.25h-.11c-1.28,1.71-3.31,2.7-5.45,2.65-3.61,0-5.45-2.54-5.45-5.12,0-4.31,3.83-6.67,10.72-6.63v-.35c0-1.47-.41-4.13-4.05-4.13-1.64,0-3.25.46-4.64,1.32l-.73-2.14c1.77-1.06,3.8-1.61,5.86-1.58,5.45,0,6.78,3.72,6.78,7.3v6.65c-.02,1.43.08,2.86.3,4.27h-2.95Zm-6.34-25.12c.22,1.44,1.14,2.54,2.65,2.54,1.73,0,2.54-1.33,2.65-2.54h1.91c0,2.73-1.81,4.57-4.57,4.57-3.24,0-4.57-2.28-4.57-4.57h1.91Zm5.86,16.02c-3.53-.07-7.55.55-7.55,4.02,0,2.1,1.41,3.09,3.06,3.09,1.93.05,3.68-1.16,4.31-2.99.11-.33.18-.68.18-1.03v-3.09Z"/>
      <path class="cls-1" d="m85.31,45.48c-1.31,4.09-3.1,8.19-5.01,11.3l-4.09.33c1.3-3.66,2.26-7.42,2.89-11.25l6.2-.39Zm8.52,0c-1.31,4.09-3.1,8.19-5.01,11.3l-4.09.33c1.3-3.66,2.27-7.42,2.89-11.25l6.2-.39Z"/>
      <path class="cls-1" d="m121.78,72.01c-3.34,1.1-6.83,1.69-10.34,1.73-5.65,0-9.68-1.38-12.45-4.01-2.58-2.41-4-5.83-4-9.64,0-8.86,6.98-14.41,17.04-14.41,4.04,0,7.16.76,8.69,1.48l-1.41,5.1c-1.77-.74-3.89-1.35-7.48-1.35-5.7,0-9.99,3.05-9.99,8.64s3.92,9,9.89,9c1.71,0,3.11-.2,3.7-.47v-5.5h-4.86v-5.02h11.22v14.43Z"/>
      <path class="cls-1" d="m126.93,46.34c3.01-.43,6.04-.63,9.08-.61,4.47,0,7.39.69,9.42,2.22,1.64,1.23,2.67,3.18,2.67,5.78,0,3.66-2.83,6.01-5.06,6.71v.14c1.92.77,3.04,2.63,3.79,5.01.95,3.13,1.82,6.78,2.37,7.86h-6.64c-.45-.81-1.16-2.83-2.06-6.36-.87-3.44-2.12-4.35-4.95-4.39h-2.2v10.77h-6.43v-27.14Zm6.44,11.76h2.93c3.33,0,5.36-1.47,5.36-3.86,0-2.57-1.99-3.73-4.98-3.73-1.1-.03-2.21.04-3.3.22v7.37Z"/>
      <path class="cls-1" d="m159.29,45.97v27.51h-6.5v-27.51h6.5Z"/>
      <path class="cls-1" d="m190.47,72.01c-3.34,1.1-6.83,1.69-10.34,1.73-5.65,0-9.68-1.38-12.45-4.01-2.58-2.41-4-5.83-4-9.64,0-8.86,6.98-14.41,17.04-14.41,4.04,0,7.16.76,8.69,1.48l-1.41,5.1c-1.77-.74-3.89-1.35-7.48-1.35-5.7,0-9.99,3.05-9.99,8.64s3.92,9,9.89,9c1.71,0,3.11-.2,3.7-.47v-5.5h-4.87v-5.02h11.22v14.43Z"/>
      <path class="cls-1" d="m223.73,59.51c0,8.57-6.03,14.44-15.01,14.44s-14.37-6.03-14.37-13.96c0-8.45,6.06-14.51,14.84-14.51,9.02,0,14.55,5.99,14.55,14.03Zm-22.48.3c0,5.1,3,9.1,7.8,9.1s7.77-3.93,7.77-9.21c0-4.99-2.88-9.19-7.77-9.19s-7.8,4.13-7.8,9.29Z"/>
      <path class="cls-1" d="m228.08,46.34c3-.43,6.03-.63,9.07-.61,4.47,0,7.39.69,9.42,2.22,1.63,1.23,2.66,3.18,2.66,5.78,0,3.66-2.83,6.01-5.06,6.71v.14c1.92.77,3.04,2.63,3.79,5.01.95,3.13,1.82,6.78,2.37,7.86h-6.62c-.45-.81-1.16-2.83-2.06-6.36-.87-3.44-2.12-4.35-4.95-4.39h-2.2v10.77h-6.43v-27.14Zm6.44,11.76h2.93c3.33,0,5.36-1.47,5.36-3.86,0-2.57-1.99-3.73-4.98-3.73-1.1-.03-2.21.04-3.3.22v7.37Z"/>
      <path class="cls-1" d="m271.84,61.98h-11.4v6.24h12.72v5.26h-19.22v-27.51h18.6v5.25h-12.1v5.53h11.4v5.23Z"/>
      <path class="cls-1" d="m311.78,62.65c-.12-3.56-.23-7.68-.23-12.06h-.11c-1.01,3.71-2.3,7.79-3.51,11.4l-3.7,11.02h-5.18l-3.18-10.95c-1-3.58-1.98-7.64-2.75-11.48h-.08c-.16,3.98-.29,8.48-.47,12.15l-.54,10.75h-6.14l1.69-27.49h9.16l2.84,8.93c.9,3.04,1.81,6.63,2.47,9.89h.14c.87-3.23,1.9-7.03,2.9-9.95l3.18-8.88h8.94l1.41,27.5h-6.46l-.41-10.83Z"/>
      <path class="cls-1" d="m351.88,59.51c0,8.57-6.03,14.44-15.01,14.44s-14.37-6.03-14.37-13.96c0-8.45,6.06-14.51,14.84-14.51,9.02,0,14.55,5.99,14.55,14.03Zm-22.48.3c0,5.1,3,9.1,7.8,9.1s7.77-3.93,7.77-9.21c0-4.99-2.88-9.19-7.77-9.19s-7.8,4.13-7.8,9.29Z"/>
      <path class="cls-1" d="m362.73,45.97v27.51h-6.5v-27.51h6.5Z"/>
      <path class="cls-1" d="m368.86,66.74c2.37,1.24,5,1.91,7.68,1.94,2.97,0,4.56-1.14,4.56-2.95,0-1.6-1.33-2.59-4.95-3.64-4.86-1.41-8.38-3.77-8.38-8.29,0-4.78,4.27-8.31,10.95-8.31,3.57,0,6.02.66,7.92,1.52l-1.55,5.12c-2.04-.93-4.25-1.41-6.49-1.41-2.85,0-4.2,1.21-4.2,2.6,0,1.77,1.77,2.52,5.53,3.72,5.27,1.7,7.84,4.14,7.84,8.36,0,4.43-3.45,8.59-11.75,8.59-3.42,0-6.86-.95-8.6-1.91l1.44-5.32Z"/>
      <path class="cls-1" d="m398.91,45.97v27.51h-6.5v-27.51h6.5Z"/>
      <path class="cls-1" d="m404.57,45.97h6.5v22.06h12.24v5.45h-18.72l-.02-27.51Z"/>
      <path class="cls-1" d="m430.16,45.48c-1.31,4.09-3.1,8.19-5.01,11.3l-4.09.33c1.3-3.66,2.27-7.42,2.89-11.25l6.2-.39Zm8.52,0c-1.31,4.09-3.1,8.19-5.01,11.3l-4.09.33c1.3-3.66,2.27-7.42,2.89-11.25l6.2-.39Z"/>
      <path class="cls-1" d="m469.82,45.97v27.51h-3.55v-27.51h3.55Z"/>
      <path class="cls-1" d="m486.83,73.48l-.29-2.47h-.12c-1.42,1.89-3.67,2.99-6.04,2.94-4,0-6.04-2.83-6.04-5.67,0-4.77,4.24-7.38,11.87-7.34v-.41c0-1.63-.45-4.57-4.49-4.57-1.82,0-3.6.51-5.14,1.47l-.82-2.37c1.63-1.06,4-1.77,6.49-1.77,6.04,0,7.51,4.12,7.51,8.08v7.38c-.03,1.58.08,3.17.33,4.73h-3.26Zm-.53-10.08c-3.91-.08-8.36.61-8.36,4.45,0,2.32,1.55,3.43,3.38,3.43,2.14.06,4.07-1.28,4.77-3.3.13-.37.2-.75.2-1.14v-3.43Z"/>
      <path class="cls-1" d="m495.07,69.79c1.42.88,3.06,1.37,4.73,1.41,2.61,0,3.83-1.3,3.83-2.94,0-1.71-1.02-2.65-3.67-3.63-3.53-1.26-5.22-3.22-5.22-5.59,0-3.18,2.57-5.79,6.81-5.79,1.7-.02,3.37.4,4.85,1.22l-.9,2.61c-1.21-.75-2.61-1.14-4.04-1.14-2.12,0-3.3,1.22-3.3,2.69,0,1.63,1.18,2.37,3.75,3.35,3.43,1.3,5.18,3.02,5.18,5.96,0,3.47-2.69,5.91-7.38,5.91-1.93.04-3.85-.43-5.55-1.35l.9-2.72Zm2.37,11.05c1.59-.24,3.06-1.06,3.06-2.69,0-.94-.65-1.88-1.39-2.45l2.69-.57c.98.68,1.57,1.79,1.59,2.98,0,3.02-2.73,4.24-5.26,4.41l-.69-1.67Z"/>
      <path class="cls-1" d="m515.71,48.18c.04,1.22-.86,2.2-2.29,2.2-1.17.02-2.14-.9-2.16-2.08,0-.04,0-.08,0-.13-.03-1.21.92-2.21,2.13-2.24.04,0,.08,0,.11,0,1.17-.05,2.16.86,2.21,2.03,0,.07,0,.14,0,.21Zm-4,25.3v-19.76h3.59v19.76h-3.59Z"/>
    </g>
  </g>
</svg>