<?xml version="1.0" encoding="UTF-8"?>
<svg id="Layer_2" data-name="Layer 2" xmlns="http://www.w3.org/2000/svg" viewBox="0 0 41.23 41.23">
  <defs>
    <style>
      .cls-1 {
        fill: #fff;
      }
    </style>
  </defs>
  <g id="Layer_1-2" data-name="Layer 1">
    <g>
      <path class="cls-1" d="m20.71,0C9.24,0,0,9.2,0,20.6,0,32.04,9.24,41.24,20.74,41.23c11.28-.02,20.48-9.28,20.49-20.61.02-11.35-9.22-20.63-20.51-20.63Zm-.09,39.67c-10.5.02-19.04-8.5-19.07-19.04C1.54,10.13,10.09,1.56,20.6,1.57c10.54,0,19.05,8.5,19.07,19.03.02,10.51-8.5,19.05-19.04,19.07Z"/>
      <path class="cls-1" d="m20.54,33.75c-.77-.82-1.54-1.61-2.27-2.44-1.74-1.95-3.31-4.03-4.63-6.29-.99-1.71-1.84-3.5-2.26-5.45-.82-3.8.13-7.06,3.08-9.65,3.04-2.67,7.72-2.98,11.13-.8,3.49,2.23,5.11,6.22,4.2,10.3-.47,2.1-1.35,4.02-2.44,5.85-1.83,3.07-4.09,5.8-6.63,8.31-.05.05-.1.09-.19.17Zm0-13.04c1.94.03,3.55-1.56,3.58-3.52.03-1.95-1.55-3.55-3.52-3.58-1.94-.03-3.56,1.54-3.59,3.48-.03,1.99,1.53,3.59,3.53,3.62Z"/>
    </g>
  </g>
</svg>