<?xml version="1.0" encoding="UTF-8"?>
<svg id="Layer_2" data-name="Layer 2" xmlns="http://www.w3.org/2000/svg" viewBox="0 0 41.23 41.23">
  <defs>
    <style>
      .cls-1 {
        fill: #fff;
      }
    </style>
  </defs>
  <g id="Layer_1-2" data-name="Layer 1">
    <g>
      <path class="cls-1" d="m20.71,0C9.24,0,0,9.2,0,20.6,0,32.04,9.24,41.24,20.74,41.23c11.28-.02,20.48-9.28,20.49-20.61.02-11.35-9.22-20.63-20.51-20.63Zm-.09,39.67c-10.5.02-19.04-8.5-19.07-19.04C1.54,10.13,10.09,1.56,20.6,1.57c10.54,0,19.05,8.5,19.07,19.03.02,10.51-8.5,19.05-19.04,19.07Z"/>
      <g>
        <path class="cls-1" d="m13.49,10c1.22,2.11,2.44,4.22,3.68,6.36-1.18.96-1.3,2.24-1.06,3.59.44,2.43,1.58,4.49,3.46,6.11,1.02.88,2.19,1.34,3.62.74,1.22,2.12,2.44,4.23,3.65,6.33-1.84,1.39-3.56,1.49-5.39.31-2.55-1.64-4.44-3.93-6.1-6.42-2.13-3.17-3.77-6.56-4.57-10.32-.08-.4-.13-.8-.18-1.21-.35-2.89.25-4.05,2.89-5.48Z"/>
        <path class="cls-1" d="m21.05,14.4c-.28.97-1.18,1.13-1.85,1.53-.35.21-.86.23-1.29.2-.17-.01-.35-.36-.48-.58-1.05-1.82-2.07-3.65-3.16-5.45-.45-.74-.25-1.19.43-1.56.26-.14.51-.29.76-.43,1.46-.84,1.56-.81,2.41.68.91,1.6,1.84,3.18,2.75,4.78.16.28.28.57.42.84Z"/>
        <path class="cls-1" d="m30.61,31.01c0,.89-.76,1.02-1.28,1.31-.54.31-1.06.95-1.81.51-.18-.11-.31-.34-.43-.54-1.05-1.81-2.1-3.62-3.14-5.44-.49-.86-.4-1.19.46-1.69.43-.25.86-.48,1.28-.75.59-.37,1.07-.25,1.4.33,1.13,1.93,2.24,3.88,3.35,5.82.08.15.12.32.17.44Z"/>
      </g>
    </g>
  </g>
</svg>