<?xml version="1.0" encoding="UTF-8"?>
<svg id="Layer_2" data-name="Layer 2" xmlns="http://www.w3.org/2000/svg" xmlns:xlink="http://www.w3.org/1999/xlink" viewBox="0 0 303.2 169.16">
  <defs>
    <style>
      .cls-1 {
        fill: url(#linear-gradient-2);
      }

      .cls-2 {
        fill: #81da02;
      }

      .cls-3 {
        fill: #849687;
      }

      .cls-4 {
        fill: #2bbe00;
      }

      .cls-5 {
        fill: #5d83c6;
      }

      .cls-6 {
        fill: #747db4;
      }

      .cls-7 {
        fill: #c25503;
      }

      .cls-8 {
        fill: url(#linear-gradient);
      }

      .cls-9 {
        fill: #84b3f9;
      }

      .cls-10 {
        fill: #f9740b;
      }
    </style>
    <linearGradient id="linear-gradient" x1="198.74" y1="1721.39" x2="199.78" y2="1719.89" gradientTransform="translate(-471.46 -1475.62) rotate(-18.01)" gradientUnits="userSpaceOnUse">
      <stop offset="0" stop-color="#747db4"/>
      <stop offset=".94" stop-color="#6566a1"/>
    </linearGradient>
    <linearGradient id="linear-gradient-2" x1="76.7" y1="3604.24" x2="77.94" y2="3602.45" gradientTransform="translate(-3234.69 -1282.17) rotate(-66.98)" xlink:href="#linear-gradient"/>
  </defs>
  <g id="Layer_1-2" data-name="Layer 1">
    <g>
      <rect class="cls-3" x="8.6" y="101.18" width="40.43" height="1.61" transform="translate(-9.18 3.05) rotate(-5.23)"/>
      <rect class="cls-3" x="59.25" y="96.08" width="40.43" height="1.61" transform="translate(-8.5 7.65) rotate(-5.23)"/>
      <rect class="cls-3" x="22.99" y="75.34" width="40.43" height="1.61" transform="translate(95.95 6.26) rotate(66.62)"/>
      <rect class="cls-3" x="32.06" y="119.64" width="40.43" height="1.61" transform="translate(176.42 77.72) rotate(94.47)"/>
      <circle class="cls-9" cx="52.74" cy="100.32" r="15.62"/>
      <path class="cls-5" d="m66.97,101.41c-1.66-9.64-9.31-15.02-18.89-14.64,0,0-.05-.17-.05-.17,6.81-2.12,15.14,1.09,17.93,7.87.94,2.19,1.33,4.59,1.19,6.95h-.18Z"/>
      <circle class="cls-9" cx="35.57" cy="56.77" r="10.55"/>
      <path class="cls-5" d="m45.18,57.51c-.99-6.36-6.44-10.24-12.75-9.89,0,0-.03-.11-.03-.11,4.6-1.43,10.23.73,12.11,5.31.63,1.48.9,3.1.8,4.69h-.12Z"/>
      <circle class="cls-9" cx="9.4" cy="103.26" r="9.4"/>
      <path class="cls-5" d="m1.43,106.46c3.26,4.67,9.23,5.64,14.09,2.86,0,0,.07.08.07.08-3.11,2.96-8.46,3.45-11.77.53-1.09-.93-1.94-2.12-2.49-3.43l.1-.04h0Z"/>
      <circle class="cls-9" cx="52.28" cy="141.08" r="9.4"/>
      <path class="cls-5" d="m44.32,144.28c3.26,4.67,9.23,5.64,14.09,2.86,0,0,.07.08.07.08-3.11,2.96-8.46,3.45-11.77.53-1.09-.93-1.94-2.12-2.49-3.43l.1-.04h0Z"/>
      <circle class="cls-9" cx="93.92" cy="94.97" r="9.4"/>
      <path class="cls-5" d="m100.44,100.55c2.64-5.05.73-10.79-3.98-13.81,0,0,.04-.1.04-.1,4.06,1.39,6.97,5.9,5.92,10.18-.32,1.39-.98,2.7-1.89,3.8l-.08-.07h0Z"/>
    </g>
    <g>
      <rect class="cls-3" x="185.48" y="36.93" width="34.69" height="1.38" transform="translate(222.55 -167.72) rotate(84.98)"/>
      <rect class="cls-3" x="189.69" y="80.39" width="34.69" height="1.38" transform="translate(269.69 -132.25) rotate(84.98)"/>
      <rect class="cls-3" x="207.6" y="49.35" width="34.69" height="1.38" transform="translate(451.43 7.55) rotate(156.83)"/>
      <rect class="cls-3" x="235.77" y="24.07" width="34.69" height="1.38" transform="translate(385.66 -192.28) rotate(115.82)"/>
      <rect class="cls-3" x="260.19" y="14.37" width="34.69" height="1.38" transform="translate(530.03 131.24) rotate(-158.4)"/>
      <rect class="cls-3" x="272.23" y="39.8" width="34.69" height="1.38" transform="translate(438.25 -211.28) rotate(112.6)"/>
      <rect class="cls-3" x="243.13" y="52.18" width="34.69" height="1.38" transform="translate(479.71 203.11) rotate(-157.05)"/>
      <rect class="cls-3" x="169.57" y="56.99" width="34.69" height="1.38" transform="translate(368.49 130.43) rotate(-175.32)"/>
      <circle class="cls-9" cx="204.17" cy="58.14" r="13.4"/>
      <path class="cls-5" d="m203.19,70.34c8.19-1.33,12.96-8.01,12.62-16.16,0,0,.15-.04.15-.04,1.8,5.85-.98,12.99-6.81,15.35-1.88.8-3.94,1.13-5.97,1v-.15h.01Z"/>
      <circle class="cls-9" cx="241.59" cy="43.55" r="9.05"/>
      <path class="cls-5" d="m240.92,51.79c5.43-.8,8.83-5.53,8.52-10.91,0,0,.1-.03.1-.03,1.75,5.63-2.8,11.83-8.62,10.94h0Z"/>
      <circle class="cls-9" cx="201.79" cy="20.95" r="8.06"/>
      <path class="cls-5" d="m199.07,14.11c-4.01,2.74-4.87,7.95-2.5,12.08,0,0-.07.06-.07.06-3.62-3.78-2.43-10.57,2.57-12.14h0Z"/>
      <circle class="cls-9" cx="260.67" cy="7.91" r="7.91"/>
      <path class="cls-5" d="m258,1.2c-3.93,2.69-4.77,7.79-2.45,11.84,0,0-.07.06-.07.06-3.53-3.7-2.41-10.12,2.48-11.98,0,0,.03.08.03.08h0Z"/>
      <circle class="cls-9" cx="279.57" cy="59.93" r="7.91"/>
      <path class="cls-5" d="m276.11,66.26c4.58,1.31,9.05-1.3,10.68-5.67,0,0,.09.01.09.01-.6,5.12-6.45,8.44-10.77,5.66h0Z"/>
      <circle class="cls-9" cx="295.3" cy="21.79" r="7.91"/>
      <path class="cls-5" d="m291.84,28.13c4.58,1.31,9.05-1.3,10.68-5.67,0,0,.09.01.09.01-.6,5.12-6.45,8.44-10.77,5.66h0Z"/>
      <circle class="cls-9" cx="169.21" cy="57.62" r="8.06"/>
      <path class="cls-5" d="m166.49,50.78c-4.01,2.74-4.87,7.95-2.5,12.08,0,0-.07.06-.07.06-3.62-3.78-2.43-10.57,2.57-12.14h0Z"/>
      <circle class="cls-9" cx="208.63" cy="93.48" r="8.06"/>
      <path class="cls-5" d="m203.82,99.06c4.28,2.28,9.3.64,11.86-3.37,0,0,.09.03.09.03-1.68,4.96-8.25,7.04-11.95,3.34h0Z"/>
    </g>
    <g>
      <path class="cls-6" d="m242.97,90.57c6.05,1.94,12.1,3.88,18.16,5.82-.74,1.55-1.49,3.09-2.23,4.64-5.72-1.92-11.44-3.84-17.16-5.76.41-1.57.82-3.13,1.23-4.7Z"/>
      <path class="cls-6" d="m243.85,95.04c-3.08,11.26-6.15,22.53-9.23,33.79-1.35.06-11.53.64-16.86,8.68-3.14,4.73-3.14,9.83-3.13,12.07,0,5.9,2.1,10.32,3.29,12.46,2.57,1.48,5.79,3.06,9.64,4.39,4.82,1.66,9.17,2.41,12.61,2.74,2.03-.98,5.08-2.76,7.91-5.88,1.73-1.9,6.46-7.1,6.42-14.65-.04-9.53-7.63-15.4-8.62-16.14,3.87-11.15,7.73-22.3,11.6-33.45-4.54-1.33-9.09-2.66-13.63-4Z"/>
      <path class="cls-2" d="m252.39,153.33c-.82,3.15-2.4,5.19-3.99,7.21-1.54,1.95-4.25,4.85-8.54,7.36-2.55-.26-5.56-.76-8.85-1.72-4.89-1.44-8.8-3.42-11.67-5.17-.85-1.77-1.84-4.32-2.28-7.52-.65-4.81.25-8.74.94-10.97,3.12,1.77,9.57,4.86,18.25,5.09,7.18.19,12.81-1.66,15.98-2.97.48,1.69,1.14,4.93.16,8.7Z"/>
      <path class="cls-4" d="m252.23,144.63c-3.18,1.32-8.81,3.17-15.98,2.97-8.69-.23-15.13-3.32-18.25-5.09,5.56.74,11.54,1.35,17.9,1.72,5.75.33,11.21.44,16.34.39Z"/>
      <path class="cls-8" d="m243,98.14c4.45,1.39,8.89,2.79,13.34,4.18.22-.64.45-1.28.67-1.92-4.47-1.5-8.93-3-13.4-4.5-.2.75-.41,1.49-.61,2.24Z"/>
      <path class="cls-8" d="m243,98.14c4.45,1.39,8.89,2.79,13.34,4.18.22-.64.45-1.28.67-1.92-4.47-1.5-8.93-3-13.4-4.5-.2.75-.41,1.49-.61,2.24Z"/>
    </g>
    <g>
      <path class="cls-1" d="m107.12,60.74c3.62-2.38,7.24-4.76,10.87-7.13-.43-.82-.87-1.65-1.3-2.47-3.65,2.45-7.31,4.9-10.96,7.36.47.75.93,1.5,1.4,2.25Z"/>
      <path class="cls-6" d="m104.23,59.59c4.4-2.89,8.81-5.78,13.21-8.67-.53-1-1.05-2-1.58-3-4.44,2.98-8.88,5.96-13.32,8.94.57.91,1.13,1.82,1.7,2.73Z"/>
      <path class="cls-6" d="m147.9,129.14c4.19,1.76,8.91,1.08,12.07-1.75,3.41-3.06,3.54-7.33,3.56-8.12-15.18-21.89-30.35-43.78-45.53-65.67-3.62,2.38-7.24,4.76-10.87,7.13,13.59,22.8,27.18,45.6,40.77,68.41Z"/>
      <path class="cls-10" d="m140.71,89.53c7.14,10.26,14.28,20.52,21.41,30.79-.08.34-1.34,5.29-6.11,6.93-3.52,1.2-6.56-.21-7.19-.52-7.7-12.84-15.41-25.67-23.11-38.5.97.76,4.34,3.23,9.1,3.01,2.71-.12,4.77-1.07,5.91-1.71Z"/>
      <path class="cls-7" d="m140.71,89.53c-1.14.64-3.2,1.59-5.91,1.71-4.76.22-8.12-2.25-9.1-3.01,1.91-.59,5.46-1.39,9.71-.55,2.2.42,3.98,1.17,5.3,1.85Z"/>
    </g>
  </g>
</svg>