<?xml version="1.0" encoding="UTF-8"?>
<svg id="Layer_2" data-name="Layer 2" xmlns="http://www.w3.org/2000/svg" viewBox="0 0 39.9 39.9">
  <defs>
    <style>
      .cls-1 {
        fill: #fff;
      }
    </style>
  </defs>
  <g id="Layer_1-2" data-name="Layer 1">
    <path class="cls-1" d="m19.94,39.9C8.94,39.9.03,30.99,0,20.02-.03,8.9,8.98-.03,20.02,0c10.97.03,19.93,8.95,19.88,20.05-.05,10.97-8.95,19.86-19.96,19.85ZM1.65,20.67c0,.08,0,.14,0,.2.06.6.09,1.2.18,1.79.4,2.73,1.38,5.23,2.91,7.52.06.08.1.11.21.07,1.74-.73,3.55-1.23,5.39-1.6.26-.05.52-.1.74-.15-.2-1.32-.44-2.61-.59-3.91-.15-1.3-.21-2.61-.31-3.92H1.65Zm28.03,0c-.05,2.64-.33,5.25-.91,7.83,2.18.4,4.29.94,6.32,1.8,1.98-2.92,3.03-6.12,3.18-9.63h-8.59Zm0-1.65h8.57c0-.08,0-.14,0-.2-.11-.85-.18-1.7-.34-2.54-.46-2.38-1.4-4.56-2.75-6.57-.06-.09-.11-.12-.22-.07-1.85.77-3.77,1.28-5.73,1.66-.14.03-.29.06-.44.09.57,2.53.85,5.07.91,7.64Zm-19.45,0c.06-2.59.34-5.13.91-7.65-.12-.02-.22-.05-.32-.06-1.97-.38-3.91-.87-5.77-1.65-.18-.08-.25-.03-.35.11-1.73,2.6-2.73,5.46-3.01,8.57-.02.22-.03.45-.04.68h8.58Zm1.63,1.64c0,.07,0,.13,0,.18.05,2.4.31,4.78.83,7.13.07.3.01.26.31.22,1.98-.27,3.96-.41,5.96-.44.06,0,.11,0,.17,0v-7.08h-7.27Zm8.91,0v.19c0,2.23,0,4.47,0,6.7,0,.17.05.21.21.21,1.71.02,3.41.13,5.11.34.36.04.71.09,1.08.13.56-2.5.84-5.01.89-7.56h-7.29Zm-1.63-8.55c-.06,0-.11-.01-.15-.01-2.02-.04-4.04-.18-6.04-.46-.15-.02-.2.02-.24.17-.5,2.26-.76,4.56-.84,6.87,0,.11,0,.21,0,.33h7.27v-6.9Zm8.02-.49c-2.13.3-4.25.45-6.38.48v6.91h7.27c-.06-2.5-.34-4.95-.9-7.39Zm-6.38,26.55c.07-.02.13-.03.19-.05.55-.17,1.04-.44,1.49-.79.79-.61,1.42-1.37,1.97-2.2,1.06-1.62,1.76-3.39,2.31-5.23,0-.02,0-.05,0-.09-1.98-.27-3.96-.41-5.96-.44v8.79Zm-1.65,0v-8.79c-2,.03-3.98.17-5.97.44.03.1.05.18.08.26.53,1.76,1.22,3.46,2.22,5,.65,1,1.41,1.9,2.43,2.54.38.24.79.43,1.24.54ZM20.77,1.73v8.76c2-.04,3.98-.17,5.95-.44,0-.04,0-.06,0-.07-.55-1.85-1.25-3.62-2.32-5.24-.63-.96-1.37-1.82-2.36-2.45-.39-.25-.8-.44-1.27-.55Zm-7.63,8.32c2,.28,3.98.41,5.97.44V1.68c-.39.18-.75.31-1.09.5-.9.51-1.59,1.25-2.2,2.08-.92,1.26-1.59,2.65-2.12,4.11-.2.55-.37,1.1-.57,1.68Zm15.22-.25c1.93-.35,3.83-.82,5.68-1.55-1.42-1.7-3.05-3.09-4.95-4.19-1.44-.83-2.98-1.46-4.62-1.87,2.16,2.83,2.22,2.89,3.89,7.61ZM15.4,2.2c-3.83.98-6.99,3-9.54,6.03.99.48,5.06,1.58,5.69,1.54.82-2.75,1.9-5.38,3.85-7.56Zm9.1,35.5c3.84-1.04,7.02-3.04,9.57-6.06-.08-.03-.11-.06-.16-.07-1.75-.68-3.57-1.13-5.41-1.47-.11-.02-.15.01-.18.12-.16.52-.32,1.05-.5,1.56-.6,1.71-1.36,3.34-2.44,4.81-.27.37-.57.72-.89,1.12Zm-9.13-.03c-1.94-2.19-3.02-4.82-3.84-7.6-1.94.35-3.84.82-5.7,1.56,2.57,3.03,5.74,5.03,9.55,6.04Z"/>
  </g>
</svg>